<?xml version="1.0" encoding="UTF-8"?>
<svg xmlns="http://www.w3.org/2000/svg" xmlns:xlink="http://www.w3.org/1999/xlink" viewBox="0 0 344.45 140.27">
  <defs>
    <style>
      .eye-cls1 {
        fill: url(#linear-gradient);
      }

      .eye-cls1, .eye-cls2, .eye-cls3, .eye-cls4 {
        stroke-width: 0px;
      }

      .eye-cls5 {
        stroke: #fff;
        stroke-linecap: round;
        stroke-miterlimit: 10;
        stroke-width: 5px;
      }

      .eye-cls5, .eye-cls4 {
        fill: #fff;
      }

      .eye-cls2 {
        fill: url(#grad15);
        mix-blend-mode: screen;
      }

      .eye-cls3 {
        fill: url(#grad135);
      }

      .eye-cls6 {
        isolation: isolate;
      }
    </style>
    <linearGradient id="linear-gradient" x1="2" y1="70.13" x2="342.45" y2="70.13" gradientUnits="userSpaceOnUse">
      <stop offset="0" stop-color="#2aa7c9"/>
      <stop offset="1" stop-color="#1d6a9e"/>
    </linearGradient>
    <linearGradient id="grad135" data-name="grad135" x1="0" y1="74.9" x2="344.45" y2="74.9" gradientUnits="userSpaceOnUse">
      <stop offset="0" stop-color="#2aa7c9"/>
      <stop offset=".49" stop-color="#1d6a9e"/>
      <stop offset="1" stop-color="#18ba68"/>
    </linearGradient>
    <linearGradient id="grad15" data-name="grad15" x1="2" y1="75.9" x2="342.45" y2="75.9" gradientUnits="userSpaceOnUse">
      <stop offset="0" stop-color="#59f0b9"/>
      <stop offset="1" stop-color="#000"/>
    </linearGradient>
  </defs>
  <g class="eye-cls6">
    <g id="Layer_2" data-name="Layer 2">
      <g id="panels">
        <g>
          <path class="eye-cls1" d="M342.45,89.7c-11.57,3.62-22.86,5.46-33.6,5.46-7.88,0-19.87-.27-33.45-6.35-4.41-1.97-7.89-4.07-10.31-5.68-2.97-.35-5.94-.69-8.91-1.04.42-1.49.84-2.99,1.26-4.48-11.14-13.78-20.75-25.65-27.07-33.44C208.25,16.91,196.84,3.22,179.33.5c-3.04-.47-5.57-.52-7.11-.5-2.28-.03-4.66.12-7.11.5-18.26,2.83-29.94,16.92-34.68,23.5,1.5,1.08,3,2.16,4.49,3.25-2.39.1-4.79.2-7.18.3-6.33,6.68-10.75,12.48-13.66,16.63-2.69,3.82-5.76,8.61-11.6,16.55-1.57,2.14-2.89,3.89-3.77,5.04.7,2.34,1.41,4.69,2.11,7.04-1.48-1.57-2.97-3.13-4.45-4.7-1.73,2.09-4.15,4.78-7.3,7.64-2.78,2.52-9.63,8.92-20.04,13.06-10.57,4.21-21.83,6.35-33.45,6.35-10.74,0-22.04-1.83-33.6-5.46v50.56h340.45v-50.56Z"/>
          <path class="eye-cls3" d="M344.45,98.48c-17.72,5.95-42.41,10.33-68.31,0-42.18-16.82-50.99-82.05-96.53-88.43-4.93-.69-9.84-.69-14.77,0-45.54,6.38-54.34,71.61-96.53,88.43-25.9,10.33-50.59,5.95-68.31,0v41.78h344.45v-41.78Z"/>
          <path class="eye-cls3" d="M344.45,98.48c-17.72,5.95-42.41,10.33-68.31,0-42.18-16.82-50.99-82.05-96.53-88.43-4.93-.69-9.84-.69-14.77,0-45.54,6.38-54.34,71.61-96.53,88.43-25.9,10.33-50.59,5.95-68.31,0v41.78h344.45v-41.78Z"/>
          <path class="eye-cls2" d="M342.45,101.23c-11.57,3.62-22.86,5.46-33.6,5.46-11.63,0-22.88-2.14-33.45-6.35-20.12-8.02-32.79-26.63-45.03-44.63-14.13-20.76-27.47-40.37-51.03-43.67-2.36-.33-4.75-.5-7.11-.5s-4.75.17-7.11.5c-23.56,3.3-36.9,22.91-51.03,43.67-12.25,18-24.91,36.61-45.03,44.63-10.57,4.21-21.83,6.35-33.45,6.35-10.74,0-22.04-1.83-33.6-5.46v39.03h340.45v-39.03Z"/>
          <g>
            <path class="eye-cls4" d="M172.22,40.32c-19.6,0-30.47,15.05-31.42,16.41.95,1.37,11.82,16.41,31.42,16.41s30.47-15.05,31.42-16.41c-.95-1.37-11.82-16.41-31.42-16.41ZM172.22,66.9c-5.62,0-10.17-4.55-10.17-10.17s4.55-10.17,10.17-10.17,10.17,4.55,10.17,10.17-4.55,10.17-10.17,10.17Z"/>
            <circle class="eye-cls4" cx="175.03" cy="54.48" r="2.81"/>
            <line class="eye-cls5" x1="146.69" y1="35.31" x2="150.47" y2="40.23"/>
            <line class="eye-cls5" x1="197.75" y1="35.31" x2="193.97" y2="40.23"/>
            <line class="eye-cls5" x1="171.69" y1="21.75" x2="171.69" y2="34.33"/>
          </g>
        </g>
      </g>
    </g>
  </g>
</svg>