<?xml version="1.0" encoding="UTF-8"?>
<svg id="Layer_2" data-name="Layer 2" xmlns="http://www.w3.org/2000/svg" viewBox="0 0 401.19 365.9">
  <defs>
    <style>
      .cls-1 {
        fill: #000;
        stroke-width: 0px;
      }
    </style>
  </defs>
  <g id="objet_shadows">
    <g>
      <path class="cls-1" d="M353.17,70.84c4.15-.05,8.24.21,12.07,2.04,1.26.6,2.65,1.15,3.61,2.1,3.52,3.49,7.48,6.59,9.64,11.3.97,2.13,2.68,3.91,3.79,5.98,1.71,3.2,3.3,6.48,4.71,9.81.99,2.33,2.41,4.17,4.41,5.71,1.16.89,2.06,2.12,3.09,3.18,1.68,1.73,3.35,3.47,5.06,5.17,1.59,1.58,1.91,3.49,1.45,5.54-.87,3.94-3.13,6.86-6.44,9.2-3.51,2.49-5.67,5.91-5.57,10.41.06,2.46.22,4.91.38,7.36.36,5.4-4.88,7.94-9.2,7.15-1.97-.36-3.61-1.21-4.86-3.06-1.92-2.84-5.22-3.42-9.44-2.13-1.52.47-3.01,1.1-4.57,1.35-2.75.44-4.9-1.15-7.11-2.45-.71-.41-1.46-.76-2.21-1.08-3.02-1.27-4.51.84-4.08,3.65.38,2.45,1.1,4.86,1.5,7.31.28,1.71.5,3.49.34,5.19-.23,2.47-.78,4.92-1.3,7.35-.52,2.4-2.03,4.23-4.16,5.29-2.66,1.32-4.94,3.11-7.34,4.83-4.78,3.44-10.13,3.31-15.31.86-3.83-1.81-7.72-3.27-11.81-4.37-2.9-.77-5.02-2.93-6.88-5.34-1.32-1.71-3.04-3.12-4.58-4.66-1.26-1.27-2.59-2.47-3.77-3.82-1.7-1.93-1.56-4.14-.03-6.29,2.91-4.13,5.74-8.31,8.55-12.51,2.4-3.59,4.83-7.21,8.86-9.1,2.86-1.34,5.92-2.27,8.94-3.2,1.26-.39,2.67-.31,4.01-.43,2.28-.21,4.04.89,5.77,2.21,1.73,1.31,3.52,2.56,5.4,3.64,1.76,1,3.86.43,4.59-1.43.93-2.35,1.55-4.84,2.02-7.33.42-2.19-.67-4-2.26-5.45-2.53-2.31-5.09-4.59-7.64-6.87-2.5-2.23-3.81-5.12-4.53-8.3-.97-4.27-1.82-8.57-2.76-12.84-.45-2.05-1.26-4.07-1.39-6.14-.13-2.14.24-4.34.64-6.47.83-4.34,2.55-8.31,6.56-10.58,1.88-1.06,4.18-1.67,6.34-1.88,5.15-.5,10.33-.64,15.5-.92Z"/>
      <path class="cls-1" d="M305.28,229.7c.23,2.39-.99,3.92-2.96,4.82-5.8,2.63-11.3,5.89-17.49,7.71-2.67.78-5,2.63-7.62,3.65-5.99,2.35-12.02,4.6-18.11,6.66-1.63.55-3.55.44-5.31.3-2.75-.21-4.43-2.11-5.85-4.26-1.48-2.23-3.07-4.41-4.38-6.74-1.68-3-3.88-3.77-6.99-2.05-3.97,2.2-8.1,4.17-11.81,6.75-3.94,2.74-7.22,2.82-10.86-.41-1.78-1.58-4.15-2.49-6.21-3.75-2.18-1.33-4.3-2.76-6.49-4.08-1.41-.86-2.83-1.77-4.35-2.4-2.74-1.14-5.13-2.78-6.94-5.07-1.54-1.95-1.93-4.29-.95-6.69,1.78-4.36,3.27-8.86,6.06-12.75.74-1.04,1.41-2.15,1.96-3.29,2.21-4.54,6.08-6.71,10.77-7.92,3.28-.85,6.61-.87,9.92-1.25,3.4-.39,6.29.38,9.16,1.9,2.6,1.37,4.37,3.53,5.82,6.01,1.44,2.46,3.43,4.23,6.14,5.26,3.3,1.25,5.66-.16,6.01-3.71.05-.52-.04-1.06.05-1.56.63-3.58,2.19-5.78,6.33-6.4,5.26-.79,10.34-2.7,15.56-3.87,2.8-.63,5.72-.84,8.6-1,2.63-.14,4.12,1.81,5.44,3.71,2.08,2.98,4.13,6,6.05,9.08,1.42,2.28,3.53,3.54,5.91,4.37,6.9,2.4,10.15,7.79,12.01,14.36.24.86.36,1.75.53,2.63Z"/>
      <path class="cls-1" d="M68.87,86.58c.02-5.52,1.08-10.05,3.09-14.47,1.26-2.76,1.59-5.94,2.87-8.69,2.51-5.4,3.36-11.33,6.07-16.7,2.93-5.81,7.29-9.95,12.56-13.44,4.43-2.94,9.3-4.75,14.37-6.12,1.16-.32,2.43-.31,3.65-.35,2.54-.1,5.09-.27,7.62-.13,1.49.08,3.03.48,4.4,1.09,2.64,1.17,5.18,2.33,8.19,2.48,2.79.13,4.66,1.96,5.36,4.73.96,3.77,1.81,7.56,2.77,11.32.58,2.28,1.45,4.5,1.9,6.81.67,3.45,1.04,6.96,1.63,10.43.9,5.32.11,10.48-1.13,15.65-.54,2.26-1.81,3.81-3.7,4.9-10.01,5.8-19.56,12.43-30.23,17.06-2.27.99-4.45,2.19-6.75,3.11-.91.37-2.04.41-3.04.32-3.38-.33-6.86-.42-10.1-1.33-2.3-.64-4.52-2.16-6.32-3.8-2.46-2.24-4.95-4.29-8.1-5.41-3.86-1.38-5.77-3.95-5.14-7.45Z"/>
      <path class="cls-1" d="M280.74,325.21c.92-5.07-.95-10.01-2.26-15.04-.79-3.03-1.74-6.05-1.54-9.25.08-1.33.48-2.78.08-3.95-.67-1.94-1.68-3.84-2.87-5.52-3.57-5.01-1.5-8.85,3.5-10.9,1.41-.58,2.9-1.12,4.08-2.04,2.46-1.91,5.29-2.74,8.21-3.46,1.66-.41,3.35-.85,4.88-1.58,2.67-1.27,5.5-1.86,8.35-1.89,4.99-.05,9.67-.93,13.94-3.62,2.07-1.3,4.32-1.54,6.66-.8,1.88.59,3.81,1.07,5.63,1.82,2.02.83,3.06,2.59,3.15,4.71.24,5.95-.17,11.85-1.44,17.7-.73,3.37-1.04,6.83-1.69,10.22-.31,1.61-1.04,3.14-1.5,4.73-1.25,4.28-2.31,8.61-3.71,12.84-2.36,7.12-6.63,12.91-12.42,17.74-2.99,2.49-5.45,5.63-8.14,8.49-.12.13-.11.39-.24.52-3.56,3.58-6.99,7.31-10.76,10.66-2.24,1.99-4.77,1.3-5.73-1.35-1.3-3.58-2.32-7.28-3.27-10.97-.98-3.83-1.87-7.69-2.52-11.58-.39-2.35-.26-4.79-.38-7.48Z"/>
      <path class="cls-1" d="M156.79,175.08c5,.07,9.36,1.93,13.54,4.19,2.86,1.54,5.57,3.37,8.32,5.11,3.58,2.26,5.26,5.84,6.59,9.63.95,2.7,1.74,5.47,2.79,8.13.83,2.11.86,4-.27,6.02-1.83,3.28-3.44,6.67-5.23,9.98-2.46,4.55-4.66,9.17-6.54,14.02-1.83,4.71-5.7,7.94-11.08,8.34-2.07.15-4.19-.47-6.29-.74-1.97-.25-3.95-.45-5.91-.77-2.83-.46-5.76-.69-8.45-1.59-4.47-1.51-8.81-1.21-13.28-.29-2.13.44-4.33.61-6.51.68-2,.07-3.44-1.3-4.41-2.79-1.32-2.03-2.28-4.26-2.21-6.84.05-1.93-.4-3.87-.31-5.79.11-2.36.29-4.78.88-7.05,1.15-4.42,1.91-8.85,2.28-13.41.26-3.3,1.93-6.29,4.69-8.11,5.44-3.58,10.31-7.84,15.34-11.92,3.93-3.19,8.35-5.39,13.27-6.57.93-.22,1.94-.16,2.8-.22Z"/>
      <path class="cls-1" d="M223.2,287.07c4.7-.25,8.44,2.1,12.04,4.54,2.54,1.72,4.85,3.82,7.12,5.91,2.32,2.14,4.65,4.31,6.64,6.75,2.37,2.89,2.97,6.57,3.64,10.16.64,3.39,1.53,6.75,1.89,10.16.32,3.04.39,6.2-.06,9.21-.31,2.1.14,3.92.52,5.83.73,3.62,1.94,7.19,2.23,10.84.18,2.29-.71,4.78-1.56,7.01-1.03,2.7-1.89,5.63-4.5,7.38-.76.51-1.74,1.09-2.58,1.04-7.3-.45-14.62-.94-20.89-5.41-.63-.45-1.36-.88-1.74-1.5-1.58-2.54-4.15-3.75-6.56-5.18-.38-.23-.72-.54-1.06-.83-3.35-2.81-6.6-5.76-10.09-8.4-2.19-1.66-3.63-3.76-4.95-6.04-1.15-1.99-2.18-4.06-3.46-5.96-1.54-2.29-1.97-4.59-1.14-7.27,1.06-3.4,2.06-6.83,2.81-10.31.98-4.55,1.22-9.12.72-13.82-.66-6.17,1.95-12.21,10.17-12.46,2.53-.08,5.04-.8,7.57-1.21,1.08-.17,2.16-.29,3.24-.43Z"/>
      <path class="cls-1" d="M106.93,288.57c.25,5.63.39,11.27.8,16.88.35,4.8.92,9.6,1.57,14.37.39,2.84,1.15,5.63,1.68,8.45.51,2.7.99,5.41,1.4,8.13.3,1.96-.52,3.75-1.6,5.23-1.83,2.51-4.03,4.74-7.04,5.88-2.72,1.03-5.93-.02-7.69-2.46-1.38-1.91-2.62-3.94-4.08-5.79-.87-1.09-2.07-1.91-3.09-2.89-4.48-4.31-8.12-9.3-11.93-14.18-2.43-3.11-5.42-5.77-8.18-8.62-1.65-1.71-3.54-3.24-4.96-5.12-1.27-1.68-2.91-2.73-4.66-3.56-4.08-1.94-5.54-5.17-6.02-9.51-.52-4.62,1.5-8.32,3.12-12.25.92-2.24,1.2-4.56.66-6.97-.62-2.78,2.46-6.71,5.3-6.53,2.34.15,4.65.78,6.98,1.13,4.83.74,9.43.12,13.71-2.35,3.15-1.81,6.31-3.6,9.39-5.51,1.08-.67,1.87-1.79,2.91-2.55,3.23-2.34,7.33-.84,8.12,3.13.74,3.76,1.07,7.61,1.63,11.41.36,2.47.83,4.92,1.23,7.38.34,2.09.64,4.18.96,6.27-.07.01-.15.02-.22.04Z"/>
      <path class="cls-1" d="M231.77,52.35c-1.54.18-3.07.32-4.6.54-3.26.46-5.91-1.35-8.82-2.22-3.73-1.12-6.38-3.68-9.31-5.93-.3-.23-.63-.45-.97-.6-5.96-2.65-9.95-7.35-12.97-12.9-1.43-2.63-3.33-4.79-5.51-6.69-3.75-3.26-2.73-5.87-.35-8.66,3.53-4.15,7.64-7.74,12.15-10.83,3.15-2.15,6.75-2.95,10.42-3.49,3.87-.58,7.73-1.24,11.63-1.5,2.82-.19,5.69.11,8.53.38,2.22.21,4.4.78,6.61,1.07,2.6.34,4.34,1.83,5.93,3.8,3.88,4.8,7.84,9.54,11.88,14.21,1.36,1.58,3.01,2.92,4.62,4.26,1.75,1.46,2.91,3.32,3.65,5.38.75,2.09,1.08,4.32,1.73,6.45.9,2.93-.61,5.07-2.26,7.13-2.95,3.68-7,5.61-11.48,6.57-3.93.84-7.93,1.34-11.9,2-2.97.49-5.94.98-8.9,1.47-.02-.14-.04-.29-.07-.43Z"/>
      <path class="cls-1" d="M19.67,126.73c-1.14-6.77,1.6-13.26,3.14-19.92.58-2.5,2.43-4.51,4.68-5.7,5.03-2.66,10.57-3.84,16.18-4.27,3.93-.31,7.23,1.48,9.47,4.8,4.71,6.99,9.4,13.99,14.02,21.05,2.73,4.16,2.98,8.74,2.06,13.53-.56,2.89-.64,5.86-1.11,8.77-.6,3.65-.88,7.46-2.2,10.85-2.13,5.45-6.68,8.57-12.21,10.29-3.22,1-6.07-.23-8.83-1.53-3.84-1.81-7.83-3.05-11.95-3.97-3.68-.82-6.33-2.79-7.65-6.51-.66-1.85-2.01-3.44-2.73-5.27-.79-1.99-1.37-4.09-1.77-6.2-.5-2.64-.86-5.32-1.05-7.99-.17-2.53-.04-5.07-.04-7.92Z"/>
      <path class="cls-1" d="M141.25,364.6c-1.73-.27-3.87-.38-5.89-.95-5.23-1.49-4.85-3.96-4.39-7.78.19-1.56,1.04-3.03,1.24-4.59.25-1.94.26-3.93.13-5.89-.21-3.16.6-6.13,1.35-9.12.52-2.03.95-4.15,1.86-6.01,1.95-3.94,4.19-7.74,6.32-11.59,2.57-4.65,5.17-9.28,7.73-13.93,2.72-4.94,6.41-8.75,12.14-9.84,1.9-.36,3.95-.01,5.93.14,1.85.15,2.85,1.67,2.97,3.13.31,3.77,1.71,7.03,3.62,10.18,1.72,2.84,1.71,6.02,1.8,9.23.09,3.38.54,6.75.83,10.13.04.45.14.91.11,1.35-.37,4.5-.8,8.99-1.12,13.49-.13,1.88-.15,3.79-.02,5.68.41,5.78-2.74,9.16-7.84,10.64-5.32,1.54-10.76,2.66-16.15,3.95-1.8.43-3.6.85-5.43,1.17-1.58.27-3.19.39-5.21.62Z"/>
      <path class="cls-1" d="M176.64,114.8c0-5.38,2.78-9.38,7.94-10.98,4.26-1.32,8.57-2.49,12.92-3.45,2.49-.55,5.12-.46,7.66-.84,6.12-.91,11.91-2.82,17.24-6.02.88-.53,1.79-1.04,2.75-1.38,2.19-.79,4.13-.04,5.86,1.27,3.99,3.02,7.99,6.02,11.88,9.15,2.31,1.86,4.14,4.35,4.08,7.33-.08,3.75-1.15,7.46-4.65,9.59-3.32,2.02-6.78,3.91-10.36,5.4-2.81,1.17-5.24,2.76-7.3,4.86-2.09,2.13-4.53,2.79-7.34,2.7-4.41-.14-8.8,0-12.98,1.59-1.48.56-2.81,1.51-4.26,2.15-1.45.64-2.93,1.34-4.47,1.62-1.95.36-3.76-.73-4.57-2.26-2.66-5.03-6.79-8.66-10.91-12.34-2.39-2.13-3.74-4.75-3.48-8.39Z"/>
      <path class="cls-1" d="M107.54,113.95c5,.9,10.1.22,15.17,1.44,3.68.89,7.73.37,11.55-.62,5.05-1.31,7.58.79,10.28,3.85,2.64,3,5.24,6.18,8.42,8.5,4.25,3.09,3.67,8.09-.65,10.73-3.09,1.9-6.56,3.18-9.73,4.97-4.94,2.8-9.9,5.63-14.59,8.83-1.76,1.2-2.86,3.42-4.16,5.25-1.53,2.16-3.57,2.74-5.74,1.29-2.9-1.94-5.19-4.4-6.15-7.88-2.3-8.39-7.11-15.5-11.65-22.76-.94-1.5-1.78-3.1-2.38-4.76-1.06-2.88.25-5.75,2.93-7.33,2.09-1.23,4.28-1.74,6.68-1.53Z"/>
      <path class="cls-1" d="M104.56,175.27c-.6,2.66-1.42,6.6-2.4,10.49-.86,3.41-1.96,6.72-4.27,9.51-.93,1.13-1.86,2.34-2.41,3.68-.8,1.92-1.67,3.96-1.78,5.98-.13,2.44-.96,4.47-2.03,6.53-2.13,4.08-4.76,7.57-9.46,8.99-1.64.49-3.14,1.42-4.73,2.1-2.6,1.12-5.15,1.2-7.91.21-2.19-.79-4.59-1.08-6.92-1.36-4.05-.47-6.43-1.63-7.11-4.64-.28-1.24-.21-2.69.13-3.92.58-2.14,1.32-4.29,2.31-6.27,1.39-2.79,3.04-5.45,4.62-8.13,2.31-3.9,4.69-7.77,6.98-11.68,2.3-3.92,5.76-5.65,10.2-6.21,4.11-.52,7.57-2.79,11.01-5.06,2.86-1.89,5.96-3.49,9.12-4.81,2.87-1.2,4.66.24,4.66,4.59Z"/>
      <path class="cls-1" d="M0,212.5c.19-2.66,1.07-4.79,2.96-6.48,1.93-1.71,3.83-3.46,5.87-5.04,1.43-1.11,3.14-1.55,5.03-1.6,3.47-.11,6.94-.43,10.4-.73,1.61-.14,4.22,1.12,4.87,2.79,1.58,4.03,3.14,8.08,4.46,12.21,1.95,6.06,3.67,12.2,5.51,18.29.28.91.52,1.87.99,2.69,1.52,2.64.96,5.22-.28,7.67-1.24,2.47-1.99,4.97-1.9,7.75.04,1.07-.14,2.2-.47,3.22-.44,1.34-1.44,2.58-2.88,2.52-3.96-.16-7.92-.58-11.59-2.23-2.45-1.1-3-3.72-4.16-5.82-1.3-2.34-2.51-4.73-3.71-7.12-1.17-2.33-2.23-4.72-3.43-7.04-1.16-2.26-2.34-4.52-3.68-6.68-2.12-3.41-4.46-6.69-6.53-10.13-.76-1.26-1-2.84-1.47-4.27Z"/>
      <path class="cls-1" d="M378.05,209.85c-.39.99-.74,2.94-1.81,4.34-2.26,2.93-4.85,5.63-7.42,8.3-1.38,1.43-3.3,1.94-5.24,1.74-3.26-.33-6.34-.08-9.35,1.4-1.63.8-3.56.95-5.25,1.65-1.27.52-2.7,1.2-3.48,2.24-2.85,3.8-5.33,2.56-7.7.3-1.8-1.71-3.14-3.89-4.72-5.83-1.39-1.69-2.74-3.43-4.27-4.98-2.04-2.08-3.5-4.46-3.94-7.31-.16-1.05.27-2.28.7-3.3,1.57-3.71,4.64-6.13,7.68-8.55,1.35-1.07,2.87-1.95,4.13-3.12,2.65-2.45,5.78-2.3,8.93-1.79,7.82,1.27,14.96,4.59,22.21,7.59,2.3.95,4.66,1.74,6.93,2.74,1.56.68,2.59,1.89,2.61,4.58Z"/>
    </g>
  </g>
</svg>