<?xml version="1.0" encoding="UTF-8"?>
<svg id="Layer_2" data-name="Layer 2" xmlns="http://www.w3.org/2000/svg" xmlns:xlink="http://www.w3.org/1999/xlink" viewBox="0 0 70.09 92.86">
  <defs>
    <style>
      .Graphic_Style_2 {
        filter: url(#drop-shadow-1);
      }

      .Graphic_Style_2, .cls-1 {
        fill: #fff;
        stroke-width: 0px;
      }

      .cls-1 {
        filter: url(#drop-shadow-1-2);
      }
    </style>
    <filter id="drop-shadow-1" filterUnits="userSpaceOnUse">
      <feOffset dx="0" dy="3"/>
      <feGaussianBlur result="blur" stdDeviation="0"/>
      <feFlood flood-color="#000" flood-opacity=".7"/>
      <feComposite in2="blur" operator="in"/>
      <feComposite in="SourceGraphic"/>
    </filter>
    <filter id="drop-shadow-1-2" data-name="drop-shadow-1" filterUnits="userSpaceOnUse">
      <feOffset dx="0" dy="3"/>
      <feGaussianBlur result="blur-2" stdDeviation="0"/>
      <feFlood flood-color="#000" flood-opacity=".7"/>
      <feComposite in2="blur-2" operator="in"/>
      <feComposite in="SourceGraphic"/>
    </filter>
  </defs>
  <g id="buttons_2">
    <path class="cls-1" d="M57.51,68.37c-.44-1.49-1.25-4.81-.79-8.86,1.22-10.67,9.79-13.3,12.51-22.26,2.96-9.75-3.26-19.58-4.22-21.08C53.72-1.52,21.05-5.86,6.86,8.99-2.12,18.4-.25,33.27,1.3,46.15c.87,7.23,2.32,18.04,10.34,28.52,2.15,2.8,7.97,10.22,18.24,14.58,17.88,7.59,39.37,1.7,40.19-4.02.57-4.01-9.32-5.91-12.55-16.86ZM18.64,42.87c-2.85,0-5.15-4.72-5.15-10.54s2.31-10.54,5.15-10.54,5.15,4.72,5.15,10.54-2.31,10.54-5.15,10.54ZM42.46,42.87c-2.63,0-4.75-4.72-4.75-10.54s2.13-10.54,4.75-10.54,4.75,4.72,4.75,10.54-2.13,10.54-4.75,10.54Z"/>
  </g>
</svg>