<?xml version="1.0" encoding="UTF-8"?>
<svg id="Layer_2" data-name="Layer 2" xmlns="http://www.w3.org/2000/svg" viewBox="0 0 93.96 73.09">
  <defs>
    <style>
      .cls-1 {
        fill: #fff;
        stroke-width: 0px;
      }
    </style>
  </defs>
  <g id="buttons_2">
    <g>
      <g>
        <path class="cls-1" d="M69.4,73.09h6.6c2.75,0,5-2.25,5-5h-16.6c0,2.75,2.25,5,5,5Z"/>
        <rect class="cls-1" x="22.33" width="49.3" height="8.97"/>
        <path class="cls-1" d="M18.89,73.09h6.6c2.75,0,5-2.25,5-5H13.89c0,2.75,2.25,5,5,5Z"/>
        <path class="cls-1" d="M92.31,24.29H1.65c-.91,0-1.65.74-1.65,1.65v30.55c0,5.31,4.31,9.62,9.62,9.62h74.72c5.31,0,9.62-4.31,9.62-9.62v-30.55c0-.91-.74-1.65-1.65-1.65ZM49.21,47.22h-7.67l2.19-4.57c-1.29-.62-2.19-1.92-2.19-3.45,0-2.12,1.72-3.83,3.83-3.83s3.83,1.72,3.83,3.83c0,1.52-.9,2.83-2.19,3.45l2.19,4.57ZM81.01,46.8c0,5.27-4.27,9.55-9.55,9.55H22.5c-5.27,0-9.55-4.27-9.55-9.55v-12.76h21.89c-1.28,1.96-2.04,4.3-2.04,6.82,0,6.88,5.58,12.45,12.45,12.45s12.45-5.58,12.45-12.45c0-2.52-.75-4.86-2.04-6.82h25.34v12.76Z"/>
        <path class="cls-1" d="M82.95,0h-9.07v11.64H20.08V0h-9.07C5.74,0,1.46,4.27,1.46,9.55v12.76h91.03v-12.76C92.49,4.27,88.22,0,82.95,0ZM11.23,16.91c-1.19,0-2.15-.96-2.15-2.15s.96-2.15,2.15-2.15,2.15.96,2.15,2.15-.96,2.15-2.15,2.15ZM11.23,9.68c-1.19,0-2.15-.96-2.15-2.15s.96-2.15,2.15-2.15,2.15.96,2.15,2.15-.96,2.15-2.15,2.15ZM82.75,16.91c-1.19,0-2.15-.96-2.15-2.15s.96-2.15,2.15-2.15,2.15.96,2.15,2.15-.96,2.15-2.15,2.15ZM82.75,9.68c-1.19,0-2.15-.96-2.15-2.15s.96-2.15,2.15-2.15,2.15.96,2.15,2.15-.96,2.15-2.15,2.15Z"/>
      </g>
      <g>
        <path class="cls-1" d="M69.4,73.09h6.6c2.75,0,5-2.25,5-5h-16.6c0,2.75,2.25,5,5,5Z"/>
        <rect class="cls-1" x="22.33" width="49.3" height="8.97"/>
        <path class="cls-1" d="M18.89,73.09h6.6c2.75,0,5-2.25,5-5H13.89c0,2.75,2.25,5,5,5Z"/>
        <path class="cls-1" d="M92.31,24.29H1.65c-.91,0-1.65.74-1.65,1.65v30.55c0,5.31,4.31,9.62,9.62,9.62h74.72c5.31,0,9.62-4.31,9.62-9.62v-30.55c0-.91-.74-1.65-1.65-1.65ZM49.21,47.22h-7.67l2.19-4.57c-1.29-.62-2.19-1.92-2.19-3.45,0-2.12,1.72-3.83,3.83-3.83s3.83,1.72,3.83,3.83c0,1.52-.9,2.83-2.19,3.45l2.19,4.57ZM81.01,46.8c0,5.27-4.27,9.55-9.55,9.55H22.5c-5.27,0-9.55-4.27-9.55-9.55v-12.76h21.89c-1.28,1.96-2.04,4.3-2.04,6.82,0,6.88,5.58,12.45,12.45,12.45s12.45-5.58,12.45-12.45c0-2.52-.75-4.86-2.04-6.82h25.34v12.76Z"/>
        <path class="cls-1" d="M82.95,0h-9.07v11.64H20.08V0h-9.07C5.74,0,1.46,4.27,1.46,9.55v12.76h91.03v-12.76C92.49,4.27,88.22,0,82.95,0ZM11.23,16.91c-1.19,0-2.15-.96-2.15-2.15s.96-2.15,2.15-2.15,2.15.96,2.15,2.15-.96,2.15-2.15,2.15ZM11.23,9.68c-1.19,0-2.15-.96-2.15-2.15s.96-2.15,2.15-2.15,2.15.96,2.15,2.15-.96,2.15-2.15,2.15ZM82.75,16.91c-1.19,0-2.15-.96-2.15-2.15s.96-2.15,2.15-2.15,2.15.96,2.15,2.15-.96,2.15-2.15,2.15ZM82.75,9.68c-1.19,0-2.15-.96-2.15-2.15s.96-2.15,2.15-2.15,2.15.96,2.15,2.15-.96,2.15-2.15,2.15Z"/>
      </g>
    </g>
  </g>
</svg>