<?xml version="1.0" encoding="UTF-8"?>
<svg id="Layer_2" data-name="Layer 2" xmlns="http://www.w3.org/2000/svg" viewBox="0 0 635.53 936.75">
  <defs>
    <style>
      .mapnew-cls-1 {
        fill: #9ed0f0;
      }

      .mapnew-cls-1, .mapnew-cls-2 {
        stroke: #000;
        stroke-miterlimit: 10;
        stroke-width: 2px;
      }

      .mapnew-cls-2 {
        fill: none;
      }

      .mapnew-cls-3 {
        fill: #231f20;
        stroke-width: 0px;
      }
    </style>
  </defs>
  <g id="text">
    <g>
      <g>
        <polygon class="mapnew-cls-1" points="634.53 230.56 558.5 230.56 558.5 182.07 449.71 182.07 449.71 230.56 364.52 230.56 364.52 450.75 364.52 471.72 364.52 495.32 449.71 495.32 449.71 471.72 634.53 471.72 634.53 230.56"/>
        <g>
          <polyline class="mapnew-cls-2" points="634.53 239.28 634.53 230.56 625.81 230.56"/>
          <line class="mapnew-cls-2" x1="606.28" y1="230.56" x2="576.98" y2="230.56"/>
          <polyline class="mapnew-cls-2" points="567.22 230.56 558.5 230.56 558.5 221.84"/>
          <line class="mapnew-cls-2" x1="558.5" y1="211.48" x2="558.5" y2="195.96"/>
          <polyline class="mapnew-cls-2" points="558.5 190.78 558.5 182.07 549.78 182.07"/>
          <line class="mapnew-cls-2" x1="531.51" y1="182.07" x2="467.57" y2="182.07"/>
          <polyline class="mapnew-cls-2" points="458.43 182.07 449.71 182.07 449.71 190.78"/>
          <line class="mapnew-cls-2" x1="449.71" y1="201.13" x2="449.71" y2="216.67"/>
          <polyline class="mapnew-cls-2" points="449.71 221.84 449.71 230.56 440.99 230.56"/>
          <line class="mapnew-cls-2" x1="427.45" y1="230.56" x2="380.01" y2="230.56"/>
          <polyline class="mapnew-cls-2" points="373.24 230.56 364.52 230.56 364.52 239.28"/>
          <polyline class="mapnew-cls-2" points="364.52 255.76 364.52 450.75 364.52 471.72 364.52 478.35"/>
          <polyline class="mapnew-cls-2" points="364.52 486.6 364.52 495.32 373.24 495.32"/>
          <line class="mapnew-cls-2" x1="386.78" y1="495.32" x2="434.22" y2="495.32"/>
          <polyline class="mapnew-cls-2" points="440.99 495.32 449.71 495.32 449.71 486.6"/>
          <polyline class="mapnew-cls-2" points="449.71 480.44 449.71 471.72 458.43 471.72"/>
          <line class="mapnew-cls-2" x1="477.03" y1="471.72" x2="616.51" y2="471.72"/>
          <polyline class="mapnew-cls-2" points="625.81 471.72 634.53 471.72 634.53 463"/>
          <line class="mapnew-cls-2" x1="634.53" y1="445.79" x2="634.53" y2="247.88"/>
        </g>
      </g>
      <g>
        <polygon class="mapnew-cls-1" points="364.52 505.25 364.52 616.7 449.78 616.7 449.78 662.91 634.53 662.91 634.53 616.7 634.53 605.83 634.53 505.25 364.52 505.25"/>
        <g>
          <polyline class="mapnew-cls-2" points="373.24 505.25 364.52 505.25 364.52 513.97"/>
          <line class="mapnew-cls-2" x1="364.52" y1="532.76" x2="364.52" y2="598.58"/>
          <polyline class="mapnew-cls-2" points="364.52 607.98 364.52 616.7 373.24 616.7"/>
          <line class="mapnew-cls-2" x1="386.8" y1="616.7" x2="434.28" y2="616.7"/>
          <polyline class="mapnew-cls-2" points="441.06 616.7 449.78 616.7 449.78 625.42"/>
          <line class="mapnew-cls-2" x1="449.78" y1="635.01" x2="449.78" y2="649.4"/>
          <polyline class="mapnew-cls-2" points="449.78 654.19 449.78 662.91 458.5 662.91"/>
          <line class="mapnew-cls-2" x1="477.09" y1="662.91" x2="616.51" y2="662.91"/>
          <polyline class="mapnew-cls-2" points="625.81 662.91 634.53 662.91 634.53 654.19"/>
          <polyline class="mapnew-cls-2" points="634.53 638.61 634.53 616.7 634.53 605.83 634.53 521.76"/>
          <polyline class="mapnew-cls-2" points="634.53 513.97 634.53 505.25 625.81 505.25"/>
          <line class="mapnew-cls-2" x1="608.97" y1="505.25" x2="381.65" y2="505.25"/>
        </g>
      </g>
      <g>
        <rect class="mapnew-cls-1" x="270.28" y="873.53" width="229.24" height="62.23"/>
        <g>
          <polyline class="mapnew-cls-2" points="499.53 927.03 499.53 935.75 490.81 935.75"/>
          <line class="mapnew-cls-2" x1="474.52" y1="935.75" x2="287.14" y2="935.75"/>
          <polyline class="mapnew-cls-2" points="279 935.75 270.28 935.75 270.28 927.03"/>
          <line class="mapnew-cls-2" x1="270.28" y1="912.11" x2="270.28" y2="889.71"/>
          <polyline class="mapnew-cls-2" points="270.28 882.24 270.28 873.53 279 873.53"/>
          <line class="mapnew-cls-2" x1="295.29" y1="873.53" x2="482.65" y2="873.53"/>
          <polyline class="mapnew-cls-2" points="490.81 873.53 499.53 873.53 499.53 882.24"/>
          <line class="mapnew-cls-2" x1="499.53" y1="897.18" x2="499.53" y2="919.58"/>
        </g>
      </g>
      <g>
        <polygon class="mapnew-cls-1" points="134.8 780.72 134.8 867.31 199.51 867.31 199.51 935.75 264.21 935.75 264.21 867.31 264.21 837.92 264.21 780.72 134.8 780.72"/>
        <g>
          <polyline class="mapnew-cls-2" points="143.52 780.72 134.8 780.72 134.8 789.44"/>
          <line class="mapnew-cls-2" x1="134.8" y1="803.28" x2="134.8" y2="851.67"/>
          <polyline class="mapnew-cls-2" points="134.8 858.59 134.8 867.31 143.52 867.31"/>
          <line class="mapnew-cls-2" x1="159.27" y1="867.31" x2="182.91" y2="867.31"/>
          <polyline class="mapnew-cls-2" points="190.79 867.31 199.51 867.31 199.51 876.03"/>
          <line class="mapnew-cls-2" x1="199.51" y1="893.03" x2="199.51" y2="918.53"/>
          <polyline class="mapnew-cls-2" points="199.51 927.03 199.51 935.75 208.23 935.75"/>
          <line class="mapnew-cls-2" x1="223.98" y1="935.75" x2="247.61" y2="935.75"/>
          <polyline class="mapnew-cls-2" points="255.49 935.75 264.21 935.75 264.21 927.03"/>
          <polyline class="mapnew-cls-2" points="264.21 907.39 264.21 867.31 264.21 837.92 264.21 799.27"/>
          <polyline class="mapnew-cls-2" points="264.21 789.44 264.21 780.72 255.49 780.72"/>
          <line class="mapnew-cls-2" x1="239.5" y1="780.72" x2="151.52" y2="780.72"/>
        </g>
      </g>
      <g>
        <rect class="mapnew-cls-1" x="134.8" y="729.24" width="129.41" height="47.4"/>
        <g>
          <polyline class="mapnew-cls-2" points="134.8 767.91 134.8 776.63 143.52 776.63"/>
          <line class="mapnew-cls-2" x1="159.52" y1="776.63" x2="247.49" y2="776.63"/>
          <polyline class="mapnew-cls-2" points="255.49 776.63 264.21 776.63 264.21 767.91"/>
          <line class="mapnew-cls-2" x1="264.21" y1="757.92" x2="264.21" y2="742.94"/>
          <polyline class="mapnew-cls-2" points="264.21 737.96 264.21 729.24 255.49 729.24"/>
          <line class="mapnew-cls-2" x1="239.5" y1="729.24" x2="151.52" y2="729.24"/>
          <polyline class="mapnew-cls-2" points="143.52 729.24 134.8 729.24 134.8 737.96"/>
          <line class="mapnew-cls-2" x1="134.8" y1="747.94" x2="134.8" y2="762.92"/>
        </g>
      </g>
      <g>
        <polygon class="mapnew-cls-1" points="134.8 352.46 134.8 471.78 270.28 471.78 270.28 717.71 357.18 717.71 357.18 471.78 357.18 439.67 357.18 352.46 134.8 352.46"/>
        <g>
          <polyline class="mapnew-cls-2" points="143.52 352.46 134.8 352.46 134.8 361.18"/>
          <line class="mapnew-cls-2" x1="134.8" y1="381.55" x2="134.8" y2="452.88"/>
          <polyline class="mapnew-cls-2" points="134.8 463.07 134.8 471.78 143.52 471.78"/>
          <line class="mapnew-cls-2" x1="160.39" y1="471.78" x2="253.13" y2="471.78"/>
          <polyline class="mapnew-cls-2" points="261.56 471.78 270.28 471.78 270.28 480.5"/>
          <line class="mapnew-cls-2" x1="270.28" y1="498.09" x2="270.28" y2="700.2"/>
          <polyline class="mapnew-cls-2" points="270.28 708.99 270.28 717.71 279 717.71"/>
          <line class="mapnew-cls-2" x1="292.89" y1="717.71" x2="341.52" y2="717.71"/>
          <polyline class="mapnew-cls-2" points="348.46 717.71 357.18 717.71 357.18 708.99"/>
          <polyline class="mapnew-cls-2" points="357.18 690.68 357.18 471.78 357.18 439.67 357.18 370.32"/>
          <polyline class="mapnew-cls-2" points="357.18 361.18 357.18 352.46 348.46 352.46"/>
          <line class="mapnew-cls-2" x1="329.83" y1="352.46" x2="152.83" y2="352.46"/>
        </g>
      </g>
      <g>
        <rect class="mapnew-cls-1" x="1" y="352.46" width="127.17" height="119.32"/>
        <g>
          <polyline class="mapnew-cls-2" points="128.17 463.07 128.17 471.78 119.45 471.78"/>
          <line class="mapnew-cls-2" x1="103.77" y1="471.78" x2="17.55" y2="471.78"/>
          <polyline class="mapnew-cls-2" points="9.72 471.78 1 471.78 1 463.07"/>
          <line class="mapnew-cls-2" x1="1" y1="442.69" x2="1" y2="371.37"/>
          <polyline class="mapnew-cls-2" points="1 361.18 1 352.46 9.72 352.46"/>
          <line class="mapnew-cls-2" x1="25.4" y1="352.46" x2="111.62" y2="352.46"/>
          <polyline class="mapnew-cls-2" points="119.45 352.46 128.17 352.46 128.17 361.18"/>
          <line class="mapnew-cls-2" x1="128.17" y1="381.55" x2="128.17" y2="452.88"/>
        </g>
      </g>
      <g>
        <rect class="mapnew-cls-1" x="134.8" y="230.96" width="129.41" height="115.23"/>
        <g>
          <polyline class="mapnew-cls-2" points="264.21 337.48 264.21 346.2 255.49 346.2"/>
          <line class="mapnew-cls-2" x1="239.5" y1="346.2" x2="151.52" y2="346.2"/>
          <polyline class="mapnew-cls-2" points="143.52 346.2 134.8 346.2 134.8 337.48"/>
          <line class="mapnew-cls-2" x1="134.8" y1="317.92" x2="134.8" y2="249.46"/>
          <polyline class="mapnew-cls-2" points="134.8 239.68 134.8 230.96 143.52 230.96"/>
          <line class="mapnew-cls-2" x1="159.52" y1="230.96" x2="247.49" y2="230.96"/>
          <polyline class="mapnew-cls-2" points="255.49 230.96 264.21 230.96 264.21 239.68"/>
          <line class="mapnew-cls-2" x1="264.21" y1="259.24" x2="264.21" y2="327.7"/>
        </g>
      </g>
      <g>
        <rect class="mapnew-cls-1" x="270.28" y="230.96" width="86.92" height="115.23"/>
        <g>
          <polyline class="mapnew-cls-2" points="270.28 337.48 270.28 346.2 279 346.2"/>
          <line class="mapnew-cls-2" x1="292.89" y1="346.2" x2="341.52" y2="346.2"/>
          <polyline class="mapnew-cls-2" points="348.46 346.2 357.18 346.2 357.18 337.48"/>
          <line class="mapnew-cls-2" x1="357.18" y1="317.92" x2="357.18" y2="249.46"/>
          <polyline class="mapnew-cls-2" points="357.18 239.68 357.18 230.96 348.46 230.96"/>
          <line class="mapnew-cls-2" x1="334.57" y1="230.96" x2="285.95" y2="230.96"/>
          <polyline class="mapnew-cls-2" points="279 230.96 270.28 230.96 270.28 239.68"/>
          <line class="mapnew-cls-2" x1="270.28" y1="259.24" x2="270.28" y2="327.7"/>
        </g>
      </g>
      <g>
        <polygon class="mapnew-cls-1" points="94.66 230.96 94.66 73.23 1 73.23 1 230.96 1 288.58 1 346.2 128.17 346.2 128.17 230.96 94.66 230.96"/>
        <g>
          <polyline class="mapnew-cls-2" points="103.38 230.96 94.66 230.96 94.66 222.24"/>
          <line class="mapnew-cls-2" x1="94.66" y1="206.66" x2="94.66" y2="89.73"/>
          <polyline class="mapnew-cls-2" points="94.66 81.95 94.66 73.23 85.94 73.23"/>
          <line class="mapnew-cls-2" x1="70.7" y1="73.23" x2="17.35" y2="73.23"/>
          <polyline class="mapnew-cls-2" points="9.72 73.23 1 73.23 1 81.95"/>
          <polyline class="mapnew-cls-2" points="1 98.98 1 230.96 1 288.58 1 328.96"/>
          <polyline class="mapnew-cls-2" points="1 337.48 1 346.2 9.72 346.2"/>
          <line class="mapnew-cls-2" x1="25.4" y1="346.2" x2="111.62" y2="346.2"/>
          <polyline class="mapnew-cls-2" points="119.45 346.2 128.17 346.2 128.17 337.48"/>
          <line class="mapnew-cls-2" x1="128.17" y1="317.92" x2="128.17" y2="249.46"/>
          <polyline class="mapnew-cls-2" points="128.17 239.68 128.17 230.96 119.45 230.96"/>
        </g>
      </g>
      <g>
        <polygon class="mapnew-cls-1" points="257.88 1 1 1 1 62.53 105.72 62.53 105.72 220.28 210.79 220.28 210.79 62.53 257.88 62.53 257.88 1"/>
        <g>
          <polyline class="mapnew-cls-2" points="257.88 9.72 257.88 1 248.47 1"/>
          <line class="mapnew-cls-2" x1="230.16" y1="1" x2="19.57" y2="1"/>
          <polyline class="mapnew-cls-2" points="10.41 1 1 1 1 9.72"/>
          <line class="mapnew-cls-2" x1="1" y1="24.41" x2="1" y2="46.46"/>
          <polyline class="mapnew-cls-2" points="1 53.81 1 62.53 10.41 62.53"/>
          <line class="mapnew-cls-2" x1="27.59" y1="62.53" x2="87.73" y2="62.53"/>
          <polyline class="mapnew-cls-2" points="96.31 62.53 105.72 62.53 105.72 71.25"/>
          <line class="mapnew-cls-2" x1="105.72" y1="86.84" x2="105.72" y2="203.75"/>
          <polyline class="mapnew-cls-2" points="105.72 211.56 105.72 220.28 115.13 220.28"/>
          <line class="mapnew-cls-2" x1="132.39" y1="220.28" x2="192.75" y2="220.28"/>
          <polyline class="mapnew-cls-2" points="201.38 220.28 210.79 220.28 210.79 211.56"/>
          <line class="mapnew-cls-2" x1="210.79" y1="195.96" x2="210.79" y2="79.04"/>
          <polyline class="mapnew-cls-2" points="210.79 71.25 210.79 62.53 220.2 62.53"/>
          <line class="mapnew-cls-2" x1="229.61" y1="62.53" x2="243.76" y2="62.53"/>
          <polyline class="mapnew-cls-2" points="248.47 62.53 257.88 62.53 257.88 53.81"/>
          <line class="mapnew-cls-2" x1="257.88" y1="39.12" x2="257.88" y2="17.07"/>
        </g>
      </g>
      <rect id="tarbut" class="mapnew-cls-1" x="270.28" y="730.76" width="229.24" height="136.54"/>
      <polygon class="mapnew-cls-1" points="552.18 670.9 499.53 670.9 450.78 670.9 450.78 724.54 505.6 724.54 505.6 772.27 634.53 772.27 634.53 670.9 552.18 670.9"/>
      <g>
        <path class="mapnew-cls-3" d="M165.08,44.64l-3.4,2.18h-1.14v-1.97l4.79-3.06c-.74-.48-1.6-.61-2.61-.61h-2.18v-2.23h1.78c1.94,0,3.43.35,4.57,1.83l2.53-1.62h1.14v1.97l-4.15,2.63c.53.88,1.12,1.09,2.26,1.09h1.86v2.23h-1.22c-2.31,0-3.22-.51-4.28-2.45h.05Z"/>
        <path class="mapnew-cls-3" d="M161.25,49.13l6.86.88.35-1.01h2.18v.74l-.48,1.7.43,2.61c.03.24.05.48.05.72,0,1.57-1.2,2.77-2.74,2.77h-7.37v-4.47h2.18v2.23h4.71c.59,0,1.01-.43,1.01-1.04,0-.13,0-.24-.03-.45l-.21-1.62-7.63-.9v-2.18h.72l-.03.03Z"/>
        <path class="mapnew-cls-3" d="M168.38,63.57v-2.85h2.18v5.08h-10.05v-2.23h7.87Z"/>
        <path class="mapnew-cls-3" d="M167.32,75.48c.61,0,1.06-.45,1.06-1.06v-4.07h2.18v4.92c0,1.41-1.04,2.45-2.47,2.45h-7.58v-2.26h6.78l.03.03Z"/>
        <path class="mapnew-cls-3" d="M168.41,95.06v-2.55h2.18v4.79h-12.05v-2.23s9.87,0,9.87,0Z"/>
        <path class="mapnew-cls-3" d="M168.38,105.08v-2.85h2.18v5.08h-10.05v-2.23h7.87Z"/>
        <path class="mapnew-cls-3" d="M161.49,111.73h9.07v2.21h-7.82v.51c0,2.13,1.25,3.22,3.64,3.22h1.01c.59,0,1.06-.45,1.06-1.06,0-.19-.03-.37-.19-1.14l2.07-.32c.19.88.27,1.41.27,1.83,0,1.78-1.06,2.95-2.63,2.95h-1.01c-4.41,0-6.44-2.13-6.44-6.7v-.53c0-.53.43-.96.96-.96Z"/>
        <path class="mapnew-cls-3" d="M161.92,124.23c2.34,2.53,3.59,3.3,5.53,3.3h.93v-5.24h4.6v2.26h-2.39v4.28c0,.53-.43.96-.96.96h-1.99c-2.74,0-4.87-1.3-7.07-3.99v-1.57h1.38-.03Z"/>
        <path class="mapnew-cls-3" d="M170.56,140.61h-2.98c-4.87,0-7.05-2.34-7.05-7.53,0-.37.32-.61.72-.61h9.33v2.13h-3.72c.24.77.72,1.01,1.81,1.01h1.91v1.86h-1.86c-2.1,0-3.06-.82-3.51-2.87h-2.5c.03,2.69,1.49,3.91,4.71,3.91h3.16v2.13l-.03-.03Z"/>
        <path class="mapnew-cls-3" d="M169.6,161.32h-9.07v-2.26h7.84v-2.66c-.93-.24-1.97-.43-3.16-.43-.93,0-1.99.11-3.08.37h-1.6v-3.62h2.18v1.17c.72-.11,1.49-.19,2.26-.19,1.2,0,2.39.16,3.4.4v-1.17h2.18v7.39c0,.53-.43.96-.96.96v.03Z"/>
        <path class="mapnew-cls-3" d="M170.56,163.66v6.57c0,.66-.53,1.2-1.2,1.2h-8.85v-2.23h7.84v-3.3h-7.84v-2.23h10.05Z"/>
        <path class="mapnew-cls-3" d="M169.6,182.06h-9.07v-2.26h7.84v-2.66c-.93-.24-1.97-.43-3.16-.43-.93,0-1.99.11-3.08.37h-1.6v-3.62h2.18v1.17c.72-.11,1.49-.19,2.26-.19,1.2,0,2.39.16,3.4.4v-1.17h2.18v7.39c0,.53-.43.96-.96.96v.03Z"/>
      </g>
      <g>
        <path class="mapnew-cls-3" d="M417.46,429.08h-5.29v-2.65h9.38v2.65h-1.37v11.95h-2.72v-11.95h0Z"/>
        <path class="mapnew-cls-3" d="M424.71,428.33c1.25-.52,1.68-1.42,1.68-2.01-.68-.31-1.09-.92-1.09-1.77,0-1.04.8-1.89,1.89-1.89.85,0,1.89.5,1.89,2.15,0,2.17-1.91,4.32-4.37,4.53v-1.02h0ZM429.81,428.33c1.25-.52,1.65-1.42,1.65-2.01-.66-.31-1.09-.92-1.09-1.77,0-1.04.8-1.89,1.89-1.89.87,0,1.91.5,1.91,2.15,0,2.17-1.94,4.32-4.37,4.53v-1.02h0Z"/>
        <path class="mapnew-cls-3" d="M438.5,435.98h4.18v-6.87h-2.69v-2.65h5.41v11.01c0,.66-.5,1.16-1.13,1.16h-5.74v-2.65h-.02Z"/>
        <path class="mapnew-cls-3" d="M459.69,427.62v11.01h-2.74v-9.52h-3.21c-.31,1.13-.52,2.39-.52,3.85,0,1.13.14,2.43.47,3.73v1.94h-4.39v-2.65h1.42c-.14-.9-.24-1.82-.24-2.76,0-1.44.19-2.88.5-4.13h-1.42v-2.65h8.95c.66,0,1.16.52,1.16,1.16l.02.02Z"/>
        <path class="mapnew-cls-3" d="M469.18,429.1h-6.57v-2.65h7.86c.8,0,1.44.64,1.44,1.44v10.72h-2.72v-9.52h-.02ZM462.74,432.2h2.72v6.42h-2.72v-6.42Z"/>
        <path class="mapnew-cls-3" d="M491.65,432.77c.99-1.39,1.32-2.22,1.32-3.28v-.4h-4.23v-2.65h6.78c.09.52.14.99.14,1.82,0,2.62-.68,4.44-2.17,5.88h-1.87v-1.37h.02Z"/>
        <path class="mapnew-cls-3" d="M499.91,437.75l1.06-8.31-1.2-.43v-2.67h.9l2.05.59,3.16-.52c.28-.05.59-.07.87-.07,1.91,0,3.35,1.44,3.35,3.33v8.93h-5.41v-2.65h2.72v-5.72c0-.71-.52-1.2-1.25-1.2-.17,0-.31,0-.57.05l-1.96.26-1.09,9.26h-2.65v-.87.02Z"/>
        <path class="mapnew-cls-3" d="M516.85,432.77c.99-1.39,1.32-2.22,1.32-3.28v-.4h-4.23v-2.65h6.78c.09.52.14.99.14,1.82,0,2.62-.68,4.44-2.17,5.88h-1.87v-1.37h.02Z"/>
        <path class="mapnew-cls-3" d="M535.67,435.95v2.65h-10.25v-2.65h6.09v-6.85h-5.6v-2.65h6.85c.85,0,1.44.64,1.44,1.44v8.08h1.46v-.02Z"/>
        <path class="mapnew-cls-3" d="M553.27,436.95c3.07-2.81,3.99-4.35,3.99-6.71v-1.11h-6.38v-5.57h2.74v2.91h5.2c.66,0,1.16.52,1.16,1.16v2.43c0,3.33-1.58,5.9-4.82,8.57h-1.89v-1.68h0Z"/>
        <path class="mapnew-cls-3" d="M570.01,433.12l2.65,4.13v1.37h-2.41l-3.71-5.81c-.59.9-.76,1.94-.76,3.16v2.65h-2.72v-2.17c0-2.36.43-4.16,2.24-5.55l-1.96-3.05v-1.39h2.39l3.19,5.01c1.04-.64,1.32-1.35,1.32-2.74v-2.27h2.72v1.49c0,2.79-.61,3.92-2.95,5.17h0Z"/>
        <path class="mapnew-cls-3" d="M582.24,430.38c0-.76-.54-1.28-1.28-1.28h-4.91v-2.65h5.98c1.7,0,2.95,1.25,2.95,2.98v9.19h-2.74v-8.24h0Z"/>
        <path class="mapnew-cls-3" d="M598.33,426.46v3.61c0,5.9-2.83,8.55-9.14,8.55-.45,0-.76-.38-.76-.87v-11.31h2.57v4.53c.94-.28,1.23-.9,1.23-2.2v-2.34h2.27v2.27c0,2.55-.99,3.71-3.5,4.27v3.02c3.26-.05,4.72-1.82,4.72-5.72v-3.85h2.6v.02Z"/>
        <path class="mapnew-cls-3" d="M605.04,432.77c.99-1.39,1.32-2.22,1.32-3.28v-.4h-4.23v-2.65h6.78c.09.52.14.99.14,1.82,0,2.62-.68,4.44-2.17,5.88h-1.87v-1.37h.02Z"/>
      </g>
      <g>
        <path class="mapnew-cls-3" d="M503.45,628.85h-4.11v-3.51h7.71v19.38h-3.57v-15.87h-.03Z"/>
        <path class="mapnew-cls-3" d="M526.12,625.34v1.22c-.03,1.38-.06,2.98-.16,4.36-.5,7.37-3.17,10.1-10.79,11.07l-1.19.16h-1.32v-3.48c.72,0,1.41-.09,2.38-.25l1.16-.19-2.19-11.66v-1.25h3.48l2.19,11.85c1.85-1,2.51-2.6,2.7-5.64.13-1.91.19-4.33.22-6.21h3.57l-.06.03Z"/>
        <path class="mapnew-cls-3" d="M531.92,638h5.55v-9.12h-3.57v-3.51h7.18v14.61c0,.88-.66,1.54-1.51,1.54h-7.62v-3.51h-.03Z"/>
        <path class="mapnew-cls-3" d="M547,638h5.89c1.66,0,2.95-1.29,2.95-2.95v-6.18h-8.37v-3.51h10.41c.91,0,1.54.69,1.54,1.54v8.25c0,3.35-3.04,6.36-6.36,6.36h-6.02v-3.51h-.03Z"/>
        <path class="mapnew-cls-3" d="M588.32,635.68l3.07,7.21v1.82h-3.14l-7.46-17.56v-1.82h3.14l3.26,7.68c1.63-1,2.01-2.07,2.01-4.77v-2.92h3.64v2.13c0,4.45-1.07,6.4-4.48,8.21h-.03Z"/>
        <path class="mapnew-cls-3" d="M605.69,630.57c0-1-.72-1.69-1.69-1.69h-6.52v-3.51h7.93c2.26,0,3.92,1.66,3.92,3.95v12.2h-3.64v-10.94h0Z"/>
        <path class="mapnew-cls-3" d="M622.88,634.21l3.51,5.49v1.82h-3.2l-4.92-7.71c-.78,1.19-1,2.57-1,4.2v3.51h-3.61v-2.88c0-3.14.56-5.52,2.98-7.37l-2.6-4.04v-1.85h3.17l4.23,6.65c1.38-.85,1.76-1.79,1.76-3.64v-3.01h3.61v1.98c0,3.7-.82,5.2-3.92,6.87h0Z"/>
      </g>
      <g>
        <path class="mapnew-cls-3" d="M523.6,692.45v10.87h-2.71v-9.4h-3.17c-.3,1.12-.51,2.36-.51,3.8,0,1.12.14,2.4.47,3.69v1.91h-4.34v-2.61h1.4c-.14-.89-.23-1.8-.23-2.73,0-1.42.19-2.85.49-4.08h-1.4v-2.61h8.84c.65,0,1.14.51,1.14,1.14l.02.02Z"/>
        <path class="mapnew-cls-3" d="M530.29,697.56c.98-1.38,1.31-2.19,1.31-3.24v-.4h-4.18v-2.61h6.7c.09.51.14.98.14,1.8,0,2.59-.68,4.39-2.15,5.81h-1.84v-1.35h.02Z"/>
        <path class="mapnew-cls-3" d="M548.49,692.45v10.87h-2.71v-9.4h-3.17c-.3,1.12-.51,2.36-.51,3.8,0,1.12.14,2.4.47,3.69v1.91h-4.34v-2.61h1.4c-.14-.89-.23-1.8-.23-2.73,0-1.42.19-2.85.49-4.08h-1.4v-2.61h8.84c.65,0,1.14.51,1.14,1.14l.02.02Z"/>
        <path class="mapnew-cls-3" d="M555.18,697.56c.98-1.38,1.31-2.19,1.31-3.24v-.4h-4.18v-2.61h6.7c.09.51.14.98.14,1.8,0,2.59-.68,4.39-2.15,5.81h-1.84v-1.35h.02Z"/>
        <path class="mapnew-cls-3" d="M566.27,701.66c3.03-2.78,3.94-4.29,3.94-6.63v-1.1h-6.3v-5.51h2.71v2.87h5.13c.65,0,1.14.51,1.14,1.14v2.4c0,3.29-1.56,5.83-4.76,8.47h-1.87v-1.66Z"/>
        <path class="mapnew-cls-3" d="M580.64,693.94h-3.41v-2.61h6.09v12.01h-2.66v-9.4h-.02Z"/>
        <path class="mapnew-cls-3" d="M593.16,701.57c1.75-2.29,2.45-4.01,2.45-6.42v-1.21h-7.05v-2.61h8.59c.65,0,1.14.49,1.14,1.12v2.26c0,3.06-.77,5.69-3.06,8.45h-2.08v-1.59ZM588.78,696.7h2.68v9.05h-2.68v-9.05Z"/>
        <path class="mapnew-cls-3" d="M603.59,701.66c3.03-2.78,3.94-4.29,3.94-6.63v-1.1h-6.3v-5.51h2.71v2.87h5.13c.65,0,1.14.51,1.14,1.14v2.4c0,3.29-1.56,5.83-4.76,8.47h-1.87v-1.66Z"/>
        <path class="mapnew-cls-3" d="M613.46,700.73h4.39c1.24,0,2.19-.96,2.19-2.19v-4.6h-6.23v-2.61h7.75c.68,0,1.14.51,1.14,1.14v6.14c0,2.5-2.26,4.74-4.74,4.74h-4.48v-2.61h-.02Z"/>
      </g>
      <g>
        <path class="mapnew-cls-3" d="M9.95,442.88h6.07c1.83,0,3.16,1.35,3.16,3.19v8.62h-9.24v-11.81h0ZM16.55,452.12v-5.43c0-.73-.55-1.24-1.24-1.24h-2.73v6.67h3.99-.02Z"/>
        <path class="mapnew-cls-3" d="M28.72,449.34l2.57,4.01v1.33h-2.34l-3.6-5.64c-.57.87-.73,1.88-.73,3.07v2.57h-2.64v-2.11c0-2.29.41-4.03,2.18-5.39l-1.9-2.96v-1.35h2.32l3.09,4.86c1.01-.62,1.28-1.31,1.28-2.66v-2.2h2.64v1.44c0,2.7-.6,3.81-2.87,5.02h0Z"/>
        <path class="mapnew-cls-3" d="M36.91,453.06c2.98-2.73,3.87-4.22,3.87-6.51v-1.08h-6.19v-5.41h2.66v2.82h5.04c.64,0,1.12.5,1.12,1.12v2.36c0,3.23-1.54,5.73-4.68,8.32h-1.83v-1.63h0Z"/>
        <path class="mapnew-cls-3" d="M56.16,444.16v5.78c0,3.37-2.27,5.04-4.54,5.04s-4.47-1.6-4.47-4.86v-4.65h-.92v-2.57h8.64c.73,0,1.28.57,1.28,1.28v-.02ZM53.53,445.42h-3.78v4.91c0,1.33.96,2.15,1.95,2.15s1.83-.76,1.83-2.15v-4.91Z"/>
        <path class="mapnew-cls-3" d="M65.4,449.34l2.57,4.01v1.33h-2.34l-3.6-5.64c-.57.87-.73,1.88-.73,3.07v2.57h-2.64v-2.11c0-2.29.41-4.03,2.18-5.39l-1.9-2.96v-1.35h2.32l3.09,4.86c1.01-.62,1.28-1.31,1.28-2.66v-2.2h2.64v1.44c0,2.7-.6,3.81-2.87,5.02h0Z"/>
        <path class="mapnew-cls-3" d="M77.57,445.45h-6.37v-2.57h7.63c.78,0,1.4.62,1.4,1.4v10.41h-2.64v-9.24h-.02ZM71.34,448.45h2.64v6.24h-2.64v-6.24Z"/>
        <path class="mapnew-cls-3" d="M48.9,415.69v10.68h-2.66v-9.24h-3.12c-.3,1.1-.5,2.32-.5,3.74,0,1.1.14,2.36.46,3.62v1.88h-4.26v-2.57h1.38c-.14-.87-.23-1.77-.23-2.68,0-1.4.18-2.8.48-4.01h-1.38v-2.57h8.69c.64,0,1.12.5,1.12,1.12l.02.02Z"/>
        <path class="mapnew-cls-3" d="M56.05,417.13h-3.35v-2.57h5.98v11.81h-2.61v-9.24h-.02Z"/>
        <path class="mapnew-cls-3" d="M65.04,423.8h4.06v-6.67h-2.61v-2.57h5.25v10.68c0,.64-.48,1.12-1.1,1.12h-5.57v-2.57h-.02Z"/>
        <path class="mapnew-cls-3" d="M75.72,425.52l1.05-8.07-1.17-.41v-2.59h.87l1.99.57,3.07-.5c.28-.05.57-.07.85-.07,1.86,0,3.26,1.4,3.26,3.23v8.67h-5.25v-2.57h2.64v-5.55c0-.69-.5-1.17-1.21-1.17-.16,0-.3,0-.55.05l-1.9.25-1.05,8.99h-2.57v-.85l-.02.02Z"/>
        <path class="mapnew-cls-3" d="M94.86,421.03l2.57,4.01v1.33h-2.34l-3.6-5.64c-.57.87-.73,1.88-.73,3.07v2.57h-2.64v-2.11c0-2.29.41-4.03,2.18-5.39l-1.9-2.96v-1.35h2.32l3.09,4.86c1.01-.62,1.28-1.31,1.28-2.66v-2.2h2.64v1.44c0,2.7-.6,3.81-2.87,5.02h0Z"/>
      </g>
      <g id="tarbut_text" data-name="tarbut text">
        <path class="mapnew-cls-3" d="M299.49,830.37v15.28h-3.8v-13.22h-4.46c-.43,1.57-.72,3.31-.72,5.35,0,1.57.2,3.38.66,5.18v2.69h-6.1v-3.67h1.97c-.2-1.25-.33-2.53-.33-3.84,0-2,.26-4,.69-5.74h-1.97v-3.67h12.43c.92,0,1.61.72,1.61,1.61l.03.03Z"/>
        <path class="mapnew-cls-3" d="M309.72,832.47h-4.79v-3.67h8.56v16.89h-3.74v-13.22h-.03Z"/>
        <path class="mapnew-cls-3" d="M335.04,841.98v3.67h-14.23v-3.67h8.46v-9.51h-7.77v-3.67h9.51c1.18,0,2,.89,2,2v11.22h2.03v-.03Z"/>
        <path class="mapnew-cls-3" d="M347.24,834.24c0-1.05-.75-1.77-1.77-1.77h-6.82v-3.67h8.3c2.36,0,4.1,1.74,4.1,4.13v12.76h-3.8v-11.44h0Z"/>
        <path class="mapnew-cls-3" d="M369.47,830.37v15.28h-3.8v-13.22h-4.46c-.43,1.57-.72,3.31-.72,5.35,0,1.57.2,3.38.66,5.18v2.69h-6.1v-3.67h1.97c-.2-1.25-.33-2.53-.33-3.84,0-2,.26-4,.69-5.74h-1.97v-3.67h12.43c.92,0,1.61.72,1.61,1.61l.03.03Z"/>
        <path class="mapnew-cls-3" d="M382.65,832.47h-9.12v-3.67h10.92c1.11,0,2,.89,2,2v14.89h-3.77v-13.22h-.03ZM373.73,836.73h3.77v8.92h-3.77v-8.92Z"/>
        <path class="mapnew-cls-3" d="M417.22,834.24c0-1.05-.75-1.77-1.77-1.77h-6.82v-3.67h8.3c2.36,0,4.1,1.74,4.1,4.13v12.76h-3.8v-11.44h0Z"/>
        <path class="mapnew-cls-3" d="M425.94,828.76h11.05c1.15,0,2,.89,2,2v14.89h-3.77v-13.22h-5.54v13.22h-3.74v-16.89h0Z"/>
        <path class="mapnew-cls-3" d="M457.03,828.76v5.02c0,8.2-3.94,11.87-12.69,11.87-.62,0-1.05-.52-1.05-1.21v-15.71h3.57v6.3c1.31-.39,1.71-1.25,1.71-3.05v-3.25h3.15v3.15c0,3.54-1.38,5.15-4.85,5.94v4.2c4.53-.07,6.56-2.53,6.56-7.94v-5.35h3.61v.03Z"/>
        <path class="mapnew-cls-3" d="M474.96,841.98v3.67h-14.23v-3.67h8.46v-9.51h-7.77v-3.67h9.51c1.18,0,2,.89,2,2v11.22h2.03v-.03Z"/>
      </g>
      <g>
        <path class="mapnew-cls-3" d="M205.27,371.36v10.33h-2.57v-8.93h-3.02c-.29,1.06-.49,2.24-.49,3.61,0,1.06.13,2.28.44,3.5v1.82h-4.12v-2.48h1.33c-.13-.84-.22-1.71-.22-2.59,0-1.35.18-2.7.47-3.88h-1.33v-2.48h8.4c.62,0,1.09.49,1.09,1.09l.02.02Z"/>
        <path class="mapnew-cls-3" d="M212.16,372.75h-3.24v-2.48h5.79v11.42h-2.53v-8.93h-.02Z"/>
        <path class="mapnew-cls-3" d="M220.85,379.23h3.92v-6.45h-2.53v-2.48h5.08v10.33c0,.62-.47,1.09-1.06,1.09h-5.39v-2.48h-.02Z"/>
        <path class="mapnew-cls-3" d="M231.52,379.23h4.17c1.18,0,2.08-.91,2.08-2.08v-4.37h-5.92v-2.48h7.36c.64,0,1.09.49,1.09,1.09v5.83c0,2.37-2.15,4.5-4.5,4.5h-4.26v-2.48h-.02Z"/>
        <path class="mapnew-cls-3" d="M252.62,370.27v3.39c0,5.54-2.66,8.03-8.58,8.03-.42,0-.71-.35-.71-.82v-10.62h2.42v4.26c.89-.27,1.15-.84,1.15-2.06v-2.19h2.13v2.13c0,2.39-.93,3.48-3.28,4.01v2.84c3.06-.04,4.43-1.71,4.43-5.37v-3.61h2.44v.02Z"/>
        <path class="mapnew-cls-3" d="M276.21,371.36v10.33h-2.57v-8.93h-3.02c-.29,1.06-.49,2.24-.49,3.61,0,1.06.13,2.28.44,3.5v1.82h-4.12v-2.48h1.33c-.13-.84-.22-1.71-.22-2.59,0-1.35.18-2.7.47-3.88h-1.33v-2.48h8.4c.62,0,1.09.49,1.09,1.09l.02.02Z"/>
        <path class="mapnew-cls-3" d="M283.11,372.75h-3.24v-2.48h5.79v11.42h-2.53v-8.93h-.02Z"/>
        <path class="mapnew-cls-3" d="M294.39,376.21c.93-1.31,1.24-2.08,1.24-3.08v-.38h-3.97v-2.48h6.36c.09.49.13.93.13,1.71,0,2.46-.64,4.17-2.04,5.52h-1.75v-1.29h.02Z"/>
        <path class="mapnew-cls-3" d="M306.77,372.75h-3.24v-2.48h5.79v11.42h-2.53v-8.93h-.02Z"/>
        <path class="mapnew-cls-3" d="M323.88,379.21v2.48h-9.62v-2.48h5.72v-6.43h-5.25v-2.48h6.43c.8,0,1.35.6,1.35,1.35v7.58h1.37v-.02Z"/>
        <path class="mapnew-cls-3" d="M332.15,373.97c0-.71-.51-1.2-1.2-1.2h-4.61v-2.48h5.61c1.6,0,2.77,1.18,2.77,2.79v8.62h-2.57v-7.74h0Z"/>
        <path class="mapnew-cls-3" d="M347.16,371.36v10.33h-2.57v-8.93h-3.02c-.29,1.06-.49,2.24-.49,3.61,0,1.06.13,2.28.44,3.5v1.82h-4.12v-2.48h1.33c-.13-.84-.22-1.71-.22-2.59,0-1.35.18-2.7.47-3.88h-1.33v-2.48h8.4c.62,0,1.09.49,1.09,1.09l.02.02Z"/>
      </g>
      <g>
        <path class="mapnew-cls-3" d="M25.2,290.88h6.25c1.89,0,3.25,1.39,3.25,3.28v8.86h-9.5v-12.14ZM31.98,300.38v-5.59c0-.75-.57-1.27-1.27-1.27h-2.8v6.86h4.1-.02Z"/>
        <path class="mapnew-cls-3" d="M41.72,297.17c.99-1.39,1.32-2.22,1.32-3.28v-.4h-4.22v-2.64h6.76c.09.52.14.99.14,1.81,0,2.62-.68,4.43-2.17,5.87h-1.86v-1.37h.02Z"/>
        <path class="mapnew-cls-3" d="M49.97,302.14l1.08-8.3-1.2-.42v-2.66h.9l2.05.59,3.16-.52c.28-.05.59-.07.87-.07,1.91,0,3.35,1.44,3.35,3.32v8.91h-5.4v-2.64h2.71v-5.7c0-.71-.52-1.2-1.25-1.2-.16,0-.31,0-.57.05l-1.96.26-1.08,9.24h-2.64v-.87l-.02.02Z"/>
        <path class="mapnew-cls-3" d="M65.5,301.34c3.06-2.8,3.98-4.34,3.98-6.69v-1.11h-6.36v-5.56h2.73v2.9h5.19c.66,0,1.15.52,1.15,1.15v2.43c0,3.32-1.58,5.89-4.81,8.56h-1.89v-1.67Z"/>
        <path class="mapnew-cls-3" d="M85.28,292.2v5.94c0,3.46-2.33,5.19-4.67,5.19s-4.6-1.65-4.6-5v-4.78h-.94v-2.64h8.89c.75,0,1.32.59,1.32,1.32v-.02ZM82.59,293.49h-3.89v5.04c0,1.37.99,2.22,2,2.22s1.89-.78,1.89-2.22c0,0,0-5.04,0-5.04Z"/>
        <path class="mapnew-cls-3" d="M92.58,293.52h-3.44v-2.64h6.15v12.14h-2.69v-9.5h-.02Z"/>
        <path class="mapnew-cls-3" d="M100.24,302.14l1.06-8.3-1.2-.42v-2.66h.9l2.05.59,3.16-.52c.28-.05.59-.07.87-.07,1.91,0,3.35,1.44,3.35,3.32v8.91h-5.4v-2.64h2.71v-5.7c0-.71-.52-1.2-1.25-1.2-.16,0-.31,0-.57.05l-1.96.26-1.08,9.24h-2.64v-.87.02Z"/>
        <path class="mapnew-cls-3" d="M25.2,318.81h6.25c1.89,0,3.25,1.39,3.25,3.28v8.86h-9.5v-12.14ZM31.98,328.33v-5.59c0-.75-.57-1.27-1.27-1.27h-2.8v6.86h4.1-.02Z"/>
        <path class="mapnew-cls-3" d="M41.72,325.12c.99-1.39,1.32-2.22,1.32-3.28v-.4h-4.22v-2.64h6.76c.09.52.14.99.14,1.81,0,2.62-.68,4.43-2.17,5.87h-1.86v-1.37h.02Z"/>
        <path class="mapnew-cls-3" d="M51.55,328.33h4.17v-6.86h-2.69v-2.64h5.4v10.98c0,.66-.49,1.15-1.13,1.15h-5.73v-2.64h-.02Z"/>
        <path class="mapnew-cls-3" d="M73.09,328.31v2.64h-10.23v-2.64h6.08v-6.84h-5.59v-2.64h6.84c.85,0,1.44.64,1.44,1.44v8.06h1.46v-.02Z"/>
        <path class="mapnew-cls-3" d="M78.06,329.27c3.06-2.8,3.98-4.34,3.98-6.69v-1.11h-6.36v-5.56h2.73v2.9h5.19c.66,0,1.15.52,1.15,1.15v2.43c0,3.32-1.58,5.89-4.81,8.56h-1.89v-1.67Z"/>
        <path class="mapnew-cls-3" d="M94.54,325.17l2.36,3.89v1.89h-8.72v-2.64h5.35l-5.3-8.25v-1.25h2.5l2.8,4.67c.92-.68,1.2-1.37,1.2-2.66v-2.03h2.69v1.27c0,2.64-.61,3.96-2.88,5.09v.02Z"/>
        <path class="mapnew-cls-3" d="M102.25,320.99h-2.15v-2.2h4.04v12.16h-1.87v-9.96h-.02Z"/>
      </g>
    </g>
  </g>
</svg>