<?xml version="1.0" encoding="UTF-8"?>
<svg xmlns="http://www.w3.org/2000/svg" xmlns:xlink="http://www.w3.org/1999/xlink" viewBox="0 0 277.57 334.85">
  <defs>
    <style>
      .objpanel-cls-1 {
        fill: #36829e;
      }

      .objpanel-cls-1, .objpanel-cls-2, .objpanel-cls-3, .objpanel-cls-4, .objpanel-cls-5, .objpanel-cls-6 {
        stroke-width: 0px;
      }

      .objpanel-cls-2 {
        fill: #defcff;
      }

      .objpanel-cls-3 {
        fill: #4bc98a;
      }

      .objpanel-cls-4 {
        fill: url(#grad15);
        mix-blend-mode: screen;
      }

      .objpanel-cls-5 {
        fill: url(#grad215);
      }

      .objpanel-cls-6 {
        fill: url(#grad135);
      }

      .objpanel-cls-7 {
        isolation: isolate;
      }
    </style>
    <linearGradient id="grad135" data-name="grad135" x1="138.79" y1="-74.45" x2="138.79" y2="368.81" gradientUnits="userSpaceOnUse">
      <stop offset="0" stop-color="#2aa7c9"/>
      <stop offset=".49" stop-color="#1d6a9e"/>
      <stop offset="1" stop-color="#18ba68"/>
    </linearGradient>
    <radialGradient id="grad215" data-name="grad215" cx="147.08" cy="-3.5" fx="147.08" fy="-3.5" r="624.15" gradientUnits="userSpaceOnUse">
      <stop offset="0" stop-color="#74f2ec"/>
      <stop offset="1" stop-color="#1496c2"/>
    </radialGradient>
    <linearGradient id="grad15" data-name="grad15" x1="-71.92" y1="-128.84" x2="175.81" y2="191.82" gradientUnits="userSpaceOnUse">
      <stop offset="0" stop-color="#59f0b9"/>
      <stop offset="1" stop-color="#000"/>
    </linearGradient>
  </defs>
  <g class="objpanel-cls-7">
    <g id="Layer_2" data-name="Layer 2">
      <g id="panels">
        <g>
          <path class="objpanel-cls-3" d="M277.57,17.08c-.09,13.76-.22,27.51-.38,41.27-.32,27.58-.67,55.16-1.68,82.72-.01.35-.04.73-.29.97-.19.19-.48.25-.73.36-.95.44-1.23,1.71-.96,2.72.26,1.01.92,1.87,1.42,2.79,1.22,2.26,1.08,4.34.8,6.77-.31,2.73-.22,5.56-.28,8.32-.12,5.86-.24,11.71-.37,17.57-.25,11.71-.52,23.42-.8,35.13-.33,13.98-.68,27.96-1.04,41.94-.18,7.1-.37,14.2-.56,21.3-.13,4.82.87,11.15-1.33,15.59-.28.56-.86,1.02-1.48.95.8,1.24,1.7,2.45,2.1,3.9.83,3.04-.04,6.97-.13,10.1-.11,3.79-.21,7.58-.32,11.36-.04,1.57-.54,3.12-1.5,4.36-2.31,2.96-5.58,5.72-9.52,8.34-1.32.88-2.89,1.35-4.48,1.31-4.45-.09-8.89-.19-13.34-.27-7.11-.14-14.21-.28-21.32-.4-4.7-.08-11.92.92-14.85-4.07-.24.94-.49,1.88-.73,2.82-.08.3-.17.61-.4.81-.25.21-.61.23-.95.23-15.83,0-31.8-.49-47.68-.59-14.32-.09-28.64-.11-42.96-.04-7.16.03-14.33.09-21.49.17-3.58.04-7.17.08-10.75.14-2.23.03-6.24.11-8.21-1.01-.48-.28-.9-.69-1.42-.88-1.07-.4-2.25.18-3.18.84-2.14,1.51-3.56,1.34-6.1,1.39-13.71.29-27.42.58-41.13.88-1.59.03-3.15-.43-4.48-1.31-3.95-2.62-7.21-5.39-9.52-8.34-.97-1.24-1.47-2.8-1.51-4.37-.55-19.42-1.08-38.83-1.59-58.25-.08-3.2-.38-6.4-.53-9.6-.12-2.34.26-4.76,2.82-5.66-.27-1.09-2.05-.78-2.82-1.6-.35-.38-.42-.93-.48-1.44-.15-1.46-.31-2.91-.46-4.37-.16-1.52-.26-3.23.74-4.37,1.3-1.48,1.85-2.3.93-4.32-.58-1.28-1.77-1.87-1.66-3.45.25-3.97.39-7.76.29-11.74-.16-6.65-.3-13.3-.46-19.95-.24-10.78-.48-21.55-.7-32.33-.22-10.48-.97-20.74.68-31.15.18-1.12.38-2.29.04-3.37-.15-.47-.39-.91-.57-1.37-.25-.65-.36-1.35-.46-2.04-1.29-8.85-.73-17.89-.87-26.85-.15-9.48-.28-18.96-.4-28.45C.3,52.7.12,34.89,0,17.08c-.01-1.72.56-3.4,1.61-4.76,2.9-3.77,6.08-7.13,9.69-9.81,1.33-.99,2.95-1.52,4.61-1.52h245.75c1.66,0,3.28.53,4.61,1.52,3.61,2.68,6.78,6.04,9.69,9.81,1.05,1.37,1.62,3.04,1.61,4.77Z"/>
          <path class="objpanel-cls-6" d="M277.57,16.1c-.09,13.76-.22,27.52-.38,41.27-.32,27.58-.67,55.16-1.68,82.72-.01.35-.04.73-.29.97-.19.19-.48.25-.73.36-.95.44-1.23,1.71-.96,2.72s.92,1.87,1.42,2.79c1.22,2.26,1.08,4.34.8,6.77-.31,2.73-.22,5.56-.28,8.32-.12,5.86-.24,11.71-.37,17.57-.25,11.71-.52,23.42-.8,35.13-.33,13.98-.68,27.96-1.04,41.94-.18,7.1-.37,14.2-.56,21.3-.13,4.82.87,11.15-1.33,15.59-.28.56-.86,1.02-1.48.95.8,1.24,1.7,2.45,2.1,3.9.83,3.04-.04,6.97-.13,10.1-.11,3.79-.21,7.58-.32,11.36-.04,1.57-.54,3.12-1.5,4.36-2.31,2.96-5.58,5.72-9.52,8.34-1.32.88-2.89,1.35-4.48,1.32-4.45-.09-8.89-.19-13.34-.27-7.11-.14-14.21-.28-21.32-.4-4.7-.08-11.92.92-14.85-4.07l-.73,2.82c-.08.3-.17.61-.4.81-.25.21-.61.23-.95.23-15.83,0-31.8-.49-47.68-.59-14.32-.09-28.64-.11-42.96-.04-7.16.03-14.33.09-21.49.17-3.58.04-7.17.08-10.75.14-2.23.03-6.24.11-8.21-1.01-.48-.28-.9-.69-1.42-.88-1.07-.4-2.25.18-3.18.84-2.14,1.51-3.56,1.34-6.1,1.39-13.71.29-27.42.58-41.13.88-1.59.03-3.15-.43-4.48-1.31-3.95-2.62-7.21-5.39-9.52-8.34-.97-1.24-1.47-2.8-1.51-4.37-.55-19.42-1.08-38.83-1.59-58.25-.08-3.2-.38-6.4-.53-9.6-.12-2.34.26-4.76,2.82-5.66-.27-1.09-2.05-.78-2.82-1.6-.35-.38-.42-.93-.48-1.44-.15-1.46-.31-2.91-.46-4.37-.16-1.52-.26-3.23.74-4.37,1.3-1.48,1.85-2.3.93-4.32-.58-1.28-1.77-1.87-1.66-3.45.25-3.97.39-7.76.29-11.74-.16-6.65-.3-13.3-.46-19.95-.24-10.78-.48-21.55-.7-32.33-.22-10.48-.97-20.74.68-31.15.18-1.12.38-2.29.04-3.37-.15-.47-.39-.91-.57-1.37-.25-.65-.36-1.35-.46-2.04-1.29-8.85-.73-17.89-.87-26.85-.15-9.48-.28-18.96-.4-28.45C.3,51.72.12,33.91,0,16.1c-.01-1.72.56-3.4,1.61-4.76C4.51,7.56,7.69,4.2,11.3,1.52c1.33-.99,2.95-1.52,4.61-1.52h245.75c1.66,0,3.28.53,4.61,1.52,3.61,2.68,6.78,6.04,9.69,9.81,1.05,1.37,1.62,3.04,1.61,4.77Z"/>
          <path class="objpanel-cls-5" d="M271.8,15.42c-.01,1.57-.03,3.16-.04,4.76,0,.63,0,1.28-.01,1.91-.04,6.85-.12,13.81-.17,20.94-.01.62-.01,1.25-.03,1.9-.07,7-.16,14.13-.24,21.38,0,.55-.01,1.06-.03,1.61-.13,10.75-.27,21.8-.46,33.12-.01.73-.03,1.48-.04,2.23-.06,3.43-.12,6.88-.16,10.37-.01.32-.01.65-.03.98-.06,3.79-.13,7.62-.19,11.48-.01.7-.03,1.42-.04,2.14-.04,2.79-.1,5.58-.16,8.36-.01.98.29,2.64-.07,3.56-.4,1.01-1.57,1.42-2.21,2.24-1.12,1.42-.55,3.49.27,5.09,2.04,4.04,1.64,7.86,1.55,12.29-.03,1.14-.04,2.3-.06,3.45-.11,5.19-.23,10.45-.34,15.76-.01.73-.03,1.49-.06,2.24-.04,2.31-.09,4.66-.16,6.98-.01,1.28-.04,2.56-.09,3.85-.16,7.04-.32,14.17-.49,21.4-.27,11.22-.55,22.66-.85,34.34-.04,1.84-.09,3.68-.14,5.53-.23,6.48-.33,12.98-.5,19.46-.16,6.05.62,12.96-.91,18.82-5.7-1.84-11.22-4.27-16.42-7.24,5.03,4.17,10.5,7.77,16.31,10.75.29.16.6.32.76.6.19.34.11.76.03,1.15-1.51,7.11-.85,14.86-1.05,22.17-.01.53-.17,1.02-.43,1.35-1.82,2.34-4.63,4.77-8.31,7.24-.45.29-.96.45-1.48.45h-.04c-12.66-.27-26.78-.56-41.84-.8-22.06-.36-46.1-.66-70.4-.73-4.33-.01-8.64-.03-12.96-.03-24.23,0-46.6.22-68.4.69l-41.13.88c-.57,0-1.08-.16-1.54-.46-3.68-2.44-6.48-4.87-8.32-7.23-.26-.33-.4-.82-.42-1.37-.14-5.13-.3-10.22-.45-15.27-.03-1.57-.07-3.15-.11-4.71-.2-7.07-.39-14.04-.57-20.94-.01-.53-.01-1.05-.04-1.58-.27-5.6-.3-11.24-.45-16.84-.07-2.79.13-5.73-.22-8.49-.24-1.88-1.29-3.29.37-4.94.8-.82,1.9-1.28,2.96-1.74,4.3-1.81,8.61-3.62,12.9-5.43,1.34-.56,2.69-1.14,4.07-1.55-6.9,1.72-13.75,3.69-20.52,5.89-.53-3.25-.16-6.7-.24-9.99-.07-3.32-.24-6.65-.24-9.97,0-.33-.01-.66-.03-.99-.03-1.88-.07-3.76-.13-5.65-.11-4.81-.23-9.58-.33-14.3-.01-.52-.03-1.03-.03-1.52-.23-9.44-.43-18.69-.62-27.81-.01-.63-.03-1.26-.04-1.91-.19-8.97-.37-17.79-.53-26.45-.01-.85-.03-1.68-.04-2.51-.11-5.85-.23-11.63-.33-17.33-.01-.91-.03-1.82-.04-2.73-.26-14.5-.49-28.52-.68-42.1,0-.53-.01-1.05-.01-1.58-.1-6.98-.2-13.85-.27-20.59-.01-.8-.01-1.61-.03-2.43-.09-7.72-.16-15.26-.23-22.68-.01-.45-.01-.89-.01-1.34-.04-5.46-.09-10.83-.13-16.12,0-.59.2-1.15.56-1.61,2.87-3.74,5.7-6.61,8.68-8.82.43-.33.99-.52,1.55-.52h245.75c.56,0,1.11.19,1.55.52,2.97,2.21,5.82,5.09,8.68,8.82.36.46.56,1.02.56,1.61Z"/>
          <path class="objpanel-cls-4" d="M213.66,327.28c-22.06-.36-46.1-.66-70.4-.73L50.46,4.47h117.26l45.94,322.81Z"/>
          <path class="objpanel-cls-2" d="M271.79,15.41c0,24.88-.46,49.76-.83,74.63-.14,9.1-.28,18.21-.44,27.31-.08,4.62-.16,9.25-.25,13.87-.04,2.42-.09,4.84-.14,7.26-.05,2.6-.55,2.74-1.9,4.75-.69,1.03-.21,2.44.42,3.51,2.41,4.06,1.12,10.01,1.02,14.63-.12,5.7-.24,11.41-.36,17.11-.25,11.66-.52,23.32-.79,34.98-.98-12.76-1.28-25.57-1.24-38.36.02-6.41.13-12.81.27-19.22.03-1.46-.01-2.89.36-4.3.19-.74.69-1.43.65-2.22-.06-1.07-3.4-5.5-2.42-6.37.64-.57,1.29-1.15,1.68-1.92.9-1.8.28-5.53.34-7.53.08-2.84.16-5.69.25-8.53.17-5.68.37-11.37.61-17.05.4-9.19-.88-18.42.05-27.68.35-3.51.73-7.03.72-10.57-.01-3.73-.46-7.45-.78-11.17-.68-7.96-.76-15.98-.24-23.95.36-5.67,3.15-14,.44-19.32-2.08-4.06-6.94-8.49-11.44-9.62-4.77-1.19-9.85-.33-14.67-.13-9.63.44-19.28.54-28.91.32-8.59-.19-17.13-1.32-25.58-.01-2.99.47-5.96,1.09-8.98,1.33-3.14.26-6.31.09-9.46-.06-27.07-1.33-53.75-1.77-80.84-1.35-13.59.21-27.17.47-40.76.77-6.78.15-13.58.32-20.37.5-5.58.14-11.32-1.13-16,2.46-1.95,1.49-5.54,4.1-6.42,6.44-.27.72-.26,1.5-.24,2.26.46,22.31,1.28,44.58,1.96,66.9.4,13.53.81,27.08.64,40.62-.04,3.14-.53,6.55-.05,9.67.32,2.08.95,3.83,1.01,5.97.15,6.42.06,12.87.1,19.3.1,18.03-.5,36.08-1.27,54.08-.03.69-.06,1.38-.12,2.09-1.85-77.73-2.95-144.19-3.33-201.41,0-.59.19-1.14.55-1.6,2.87-3.73,5.71-6.62,8.68-8.82.44-.33.99-.51,1.55-.51h245.76c.55,0,1.1.18,1.55.51,2.97,2.21,5.82,5.09,8.68,8.82.36.46.55,1.03.55,1.6Z"/>
          <path class="objpanel-cls-2" d="M263.4,19.67c-1.5-1.77-2.97-3.59-4.77-5.1-4.62-3.89-11.06-3.58-16.89-3.73-7.29-.19-14.59-.31-21.89-.48-10.29-.24-20.58-.35-30.87-.33-10.05.02-62.35.16-72.4.42-10.05-.26-20.09-.41-30.14-.42-10.29-.02-20.58.09-30.87.33-7.3.17-14.59.29-21.89.48-5.83.15-12.27-.16-16.89,3.73-1.8,1.52-3.27,3.33-4.77,5.1-1.13,1.34-3.11,2.4-2.31,4.24,1.55,3.57,5.64,6.31,8.91,8.41,1.92,1.22,4.37-2.55,5.18-3.67,1.38-1.92,2.73-4.06,4.36-5.89,1.05-1.18,2.08-1.38.8-2.64-.99-.97-2.02-1.9-2.92-2.95-.57-.68-2.32.24-2.78.68-1.95,1.87-3.74,3.93-5.77,5.72-1.16,1.02,2.05.49,2.65-.21,1.2-1.39,2.63-2.77,4.13-3.87,1.02-.75.68-.59,1.46.08.55.47,1.2,1.13,1.15,1.89-.02.29-.13.57-.28.82-1.61,2.82-4.47,4.92-6.31,7.63-.43.62-6.17-4.78-6.72-5.31-1.38-1.31-1.44-2.24-.11-3.68,2.05-2.21,4.15-4.85,6.79-6.41,3.85-2.28,8.36-1.57,12.69-1.63,7.2-.11,14.54-.21,21.74-.38,10.88-.25,21.42-.79,32.3-.75,5.36.02,10.72.14,16.07.29,14.39.41,70.97-.24,85.37-.29,10.88-.03,21.42.5,32.3.75,7.2.17,14.54.26,21.74.38,4.33.07,8.85-.64,12.69,1.63,2.63,1.56,4.74,4.2,6.79,6.41,1.33,1.43,1.26,2.37-.11,3.68-.56.53-6.3,5.93-6.72,5.31-1.85-2.7-4.7-4.81-6.31-7.63-.15-.25-.26-.53-.28-.82-.04-.76.6-1.41,1.15-1.89.78-.67.44-.83,1.46-.08,1.51,1.1,2.94,2.48,4.13,3.87.6.7,3.81,1.24,2.65.21-2.03-1.79-3.82-3.85-5.77-5.72-.46-.44-2.2-1.36-2.78-.68-.9,1.06-1.93,1.98-2.92,2.95-1.28,1.26-.26,1.46.8,2.64,1.63,1.83,2.98,3.97,4.36,5.89.81,1.12,3.26,4.89,5.18,3.67,3.28-2.1,7.36-4.84,8.91-8.41.8-1.84-1.18-2.9-2.31-4.24Z"/>
          <path class="objpanel-cls-1" d="M263.15,18.81c-1.5-1.77-2.97-3.59-4.77-5.1-4.62-3.89-11.06-3.58-16.89-3.73-7.29-.19-14.59-.31-21.89-.48-10.29-.24-20.58-.35-30.87-.33-10.05.02-62.35.16-72.4.42-10.05-.26-20.09-.41-30.14-.42-10.29-.02-20.58.09-30.87.33-7.3.17-14.59.29-21.89.48-5.83.15-12.27-.16-16.89,3.73-1.8,1.52-3.27,3.33-4.77,5.1-1.13,1.34-3.11,2.4-2.31,4.24,1.55,3.57,5.64,6.31,8.91,8.41,1.92,1.22,4.37-2.55,5.18-3.67,1.38-1.92,2.73-4.06,4.36-5.89,1.05-1.18,2.08-1.38.8-2.64-.99-.97-2.02-1.9-2.92-2.95-.57-.68-2.32.24-2.78.68-1.95,1.87-3.74,3.93-5.77,5.72-1.16,1.02,2.05.49,2.65-.21,1.2-1.39,2.63-2.77,4.13-3.87,1.02-.75.68-.59,1.46.08.55.47,1.2,1.13,1.15,1.89-.02.29-.13.57-.28.82-1.61,2.82-4.47,4.92-6.31,7.63-.43.62-6.17-4.78-6.72-5.31-1.38-1.31-1.44-2.24-.11-3.68,2.05-2.21,4.15-4.85,6.79-6.41,3.85-2.28,8.36-1.57,12.69-1.63,7.2-.11,14.54-.21,21.74-.38,10.88-.25,21.42-.79,32.3-.75,5.36.02,10.72.14,16.07.29,14.39.41,70.97-.24,85.37-.29,10.88-.03,21.42.5,32.3.75,7.2.17,14.54.26,21.74.38,4.33.07,8.85-.64,12.69,1.63,2.63,1.56,4.74,4.2,6.79,6.41,1.33,1.43,1.26,2.37-.11,3.68-.56.53-6.3,5.93-6.72,5.31-1.85-2.7-4.7-4.81-6.31-7.63-.15-.25-.26-.53-.28-.82-.04-.76.6-1.41,1.15-1.89.78-.67.44-.83,1.46-.08,1.51,1.1,2.94,2.48,4.13,3.87.6.7,3.81,1.24,2.65.21-2.03-1.79-3.82-3.85-5.77-5.72-.46-.44-2.2-1.36-2.78-.68-.9,1.06-1.93,1.98-2.92,2.95-1.28,1.26-.26,1.46.8,2.64,1.63,1.83,2.98,3.97,4.36,5.89.81,1.12,3.26,4.89,5.18,3.67,3.28-2.1,7.36-4.84,8.91-8.41.8-1.84-1.18-2.9-2.31-4.24Z"/>
          <path class="objpanel-cls-2" d="M261.56,315.56c-1.46,1.73-2.89,3.49-4.64,4.97-4.49,3.79-10.77,3.48-16.44,3.63-7.1.19-14.2.3-21.3.47-10.01.23-20.03.34-30.05.32-9.78-.02-60.69-.16-70.47-.41-9.78.25-19.56.4-29.34.41-10.02.02-20.03-.09-30.05-.32-7.1-.16-14.2-.28-21.3-.47-5.67-.15-11.95.16-16.44-3.63-1.75-1.48-3.19-3.24-4.64-4.97-1.1-1.3-3.03-2.34-2.25-4.13,1.51-3.47,5.49-6.14,8.68-8.19,1.87-1.19,4.26,2.48,5.05,3.57,1.35,1.87,2.66,3.96,4.24,5.74,1.02,1.15,2.02,1.34.77,2.57-.96.95-1.97,1.85-2.84,2.87-.56.66-2.25-.23-2.7-.66-1.9-1.82-3.64-3.83-5.62-5.57-1.13-1,2-.47,2.58.21,1.16,1.36,2.56,2.7,4.02,3.77.99.73.66.57,1.42-.08.54-.46,1.16-1.1,1.12-1.84-.02-.28-.13-.55-.27-.8-1.57-2.75-4.35-4.79-6.15-7.43-.42-.61-6,4.65-6.55,5.17-1.34,1.28-1.41,2.18-.11,3.58,1.99,2.15,4.04,4.72,6.61,6.24,3.75,2.22,8.14,1.52,12.36,1.59,7.01.11,14.16.21,21.16.37,10.59.24,20.85.77,31.44.73,5.22-.02,10.43-.13,15.65-.28,14-.4,69.08.24,83.1.28,10.59.03,20.85-.49,31.44-.73,7.01-.16,14.15-.26,21.16-.37,4.21-.07,8.61.63,12.36-1.59,2.56-1.52,4.61-4.09,6.61-6.24,1.3-1.4,1.23-2.3-.11-3.58-.54-.52-6.13-5.78-6.55-5.17-1.8,2.63-4.58,4.68-6.15,7.43-.14.25-.25.52-.27.8-.04.73.58,1.38,1.12,1.84.76.65.43.8,1.42.08,1.46-1.07,2.86-2.41,4.02-3.77.58-.68,3.71-1.2,2.58-.21-1.98,1.74-3.72,3.75-5.62,5.57-.45.43-2.14,1.32-2.7.66-.87-1.03-1.88-1.93-2.84-2.87-1.25-1.23-.25-1.42.77-2.57,1.58-1.78,2.9-3.86,4.24-5.74.79-1.09,3.18-4.76,5.05-3.57,3.19,2.04,7.17,4.71,8.68,8.19.78,1.79-1.15,2.82-2.25,4.13Z"/>
          <path class="objpanel-cls-1" d="M261.41,314.64c-1.46,1.73-2.89,3.49-4.64,4.97-4.49,3.79-10.77,3.48-16.44,3.63-7.1.19-14.2.3-21.3.47-10.01.23-20.03.34-30.05.32-9.78-.02-60.69-.16-70.47-.41-9.78.25-19.56.4-29.34.41-10.02.02-20.03-.09-30.05-.32-7.1-.16-14.2-.28-21.3-.47-5.67-.15-11.95.16-16.44-3.63-1.75-1.48-3.19-3.24-4.64-4.97-1.1-1.3-3.03-2.34-2.25-4.13,1.51-3.47,5.49-6.14,8.68-8.19,1.87-1.19,4.26,2.48,5.05,3.57,1.35,1.87,2.66,3.96,4.24,5.74,1.02,1.15,2.02,1.34.77,2.57-.96.95-1.97,1.85-2.84,2.87-.56.66-2.25-.23-2.7-.66-1.9-1.82-3.64-3.83-5.62-5.57-1.13-1,2-.47,2.58.21,1.16,1.36,2.56,2.7,4.02,3.77.99.73.66.57,1.42-.08.54-.46,1.16-1.1,1.12-1.83-.02-.28-.13-.55-.27-.8-1.57-2.75-4.35-4.79-6.15-7.43-.42-.61-6,4.65-6.55,5.17-1.34,1.28-1.41,2.18-.11,3.58,1.99,2.15,4.04,4.72,6.61,6.24,3.75,2.22,8.14,1.52,12.36,1.59,7.01.11,14.16.2,21.16.37,10.59.24,20.85.77,31.44.73,5.22-.02,10.43-.13,15.65-.28,14-.4,69.08.24,83.1.28,10.59.03,20.85-.49,31.44-.73,7.01-.16,14.15-.26,21.16-.37,4.21-.07,8.61.63,12.36-1.59,2.56-1.52,4.61-4.09,6.61-6.24,1.3-1.4,1.23-2.3-.11-3.58-.54-.52-6.13-5.78-6.55-5.17-1.8,2.63-4.58,4.68-6.15,7.43-.14.25-.25.52-.27.8-.04.73.58,1.38,1.12,1.83.76.65.43.8,1.42.08,1.46-1.07,2.86-2.41,4.02-3.77.58-.68,3.71-1.2,2.58-.21-1.98,1.74-3.72,3.75-5.62,5.57-.45.43-2.14,1.32-2.7.66-.87-1.03-1.88-1.93-2.84-2.87-1.25-1.23-.25-1.42.77-2.57,1.58-1.78,2.9-3.86,4.24-5.74.79-1.09,3.18-4.76,5.05-3.57,3.19,2.04,7.17,4.71,8.68,8.19.78,1.79-1.15,2.82-2.25,4.13Z"/>
        </g>
      </g>
    </g>
  </g>
</svg>