<?xml version="1.0" encoding="UTF-8"?>
<svg id="Layer_2" data-name="Layer 2" xmlns="http://www.w3.org/2000/svg" viewBox="0 0 247.09 240.51">
  <defs>
    <style>
      .cls-1 {
        fill: #000;
        stroke-width: 0px;
      }
    </style>
  </defs>
  <g id="objet_shadows">
    <path class="cls-1" d="M91.21,240.51c-5.06-.33-9-.46-12.92-.87-5.93-.62-11.1-3.29-15.16-7.42-4.77-4.85-9.39-9.98-13.25-15.55-8.48-12.23-16.92-24.53-24.49-37.33-7.68-13.01-14.43-26.58-21.31-40.05-4.76-9.3-4.75-19.15-3.02-29.33,1.76-10.36,7.3-17.76,15.82-23.21,14.42-9.23,29.14-17.91,44.6-25.35,14.27-6.87,28.09-14.7,42.48-21.3,24.1-11.05,48.5-21.48,73.89-29.31,11.3-3.48,22.7-6.75,34.21-9.42,5.49-1.27,11.42-1.65,17.04-1.15,8.98.8,13.56,7.23,16.09,15.25,2.6,8.23,2.28,16.59.55,24.93-2.65,12.75-5.19,25.53-8.18,38.2-3.21,13.62-7.09,27.09-10.31,40.71-2.02,8.58-2.9,17.44-5.11,25.97-3.08,11.92-6.92,23.64-10.45,35.44-2.52,8.41-5.77,16.44-10.05,24.2-5.99,10.89-14.84,17.76-26.28,21.71-9.77,3.37-19.67,6.09-30.04,7.22-12.02,1.31-23.94,3.57-35.94,5.15-6.38.84-12.84,1.09-18.18,1.53Z"/>
  </g>
</svg>