<?xml version="1.0" encoding="UTF-8"?>
<svg xmlns="http://www.w3.org/2000/svg" xmlns:xlink="http://www.w3.org/1999/xlink" viewBox="0 0 422.26 252.26" preserveAspectRatio="none">
  <defs>
    <style>
      .textpanel-cls-1 {
        fill: #cdbfde;
        mix-blend-mode: multiply;
      }

      .textpanel-cls-1, .textpanel-cls-2, .textpanel-cls-3, .textpanel-cls-4, .textpanel-cls-5, .textpanel-cls-6, .textpanel-cls-7 {
        stroke-width: 0px;
      }

      .textpanel-cls-2 {
        fill: url(#linear-gradient);
      }

      .textpanel-cls-3 {
        fill: #b4f4fa;
      }

      .textpanel-cls-4 {
        fill: url(#grad11);
      }

      .textpanel-cls-5 {
        fill: url(#grad22);
        mix-blend-mode: screen;
      }

      .textpanel-cls-6 {
        fill: url(#New_Gradient_Swatch_12);
      }

      .textpanel-cls-7 {
        fill: url(#New_Gradient_Swatch_11);
      }

      .textpanel-cls-8 {
        isolation: isolate;
      }
    </style>
    <linearGradient id="linear-gradient" x1="209.64" y1="-36.47" x2="212.48" y2="271.63" gradientUnits="userSpaceOnUse">
      <stop offset="0" stop-color="#40b8e3"/>
      <stop offset="1" stop-color="#30e591"/>
    </linearGradient>
    <linearGradient id="grad11" data-name="grad11" x1="210.72" y1="93.02" x2="218.99" y2="768.85" gradientUnits="userSpaceOnUse">
      <stop offset="0" stop-color="#4ebde6"/>
      <stop offset="1" stop-color="#085a8a"/>
    </linearGradient>
    <linearGradient id="grad22" data-name="grad22" x1="-32.52" y1="21.63" x2="268.55" y2="170.31" gradientUnits="userSpaceOnUse">
      <stop offset="0" stop-color="#c7f0e1"/>
      <stop offset="1" stop-color="#000"/>
    </linearGradient>
    <linearGradient id="New_Gradient_Swatch_12" data-name="New Gradient Swatch 12" x1="211.89" y1="364.99" x2="210.81" y2="-14.53" gradientUnits="userSpaceOnUse">
      <stop offset="0" stop-color="#2696c9"/>
      <stop offset=".99" stop-color="#213980"/>
    </linearGradient>
    <linearGradient id="New_Gradient_Swatch_11" data-name="New Gradient Swatch 11" x1="16.76" y1="129.52" x2="404.4" y2="129.52" gradientUnits="userSpaceOnUse">
      <stop offset="0" stop-color="#74f2ec"/>
      <stop offset="1" stop-color="#1496c2"/>
    </linearGradient>
  </defs>
  <g class="textpanel-cls-8">
    <g id="Layer_2" data-name="Layer 2">
      <g id="panels">
        <g>
          <path class="textpanel-cls-2" d="M422.26,126.14c0-.08,0-.16,0-.23,0-5.37-.19-10.74-.33-16.1-.03-1.04-.29-17.55-2.35-15.62,3.01-2.81,1.33-11.18,1.05-15.06-.43-5.91-1.05-11.8-2.11-17.56-.69-3.73-1.95-7.77-4.97-8.98-3.63-1.45-8.7-.37-12.46-.25-5.02.16-10.25-.94-15.06.61-.25-3.67-2.35-4.92-3.74-7.81-1.26-2.61-1.92-5.66-2.35-8.68-.89-6.17-.63-12.49-.72-18.74-.04-2.76.3-6.7-1.38-8.63-2.7-3.09-7.89-3.52-11.28-4.1-3.89-.67-7.96-.93-11.79-1.26-8.36-.71-16.73-.79-25.1-1.11-14.68-.56-29.36-1.08-44.05-1.48-6.02-.17-74.45-1.45-74.45-1.08,0-.02-15.78-.27-16.69.16-1.13.53-1.99,2.6-3.01,2.84-1.28.31-4.2-2.11-5.65-2.46-3.81-.9-7.73-.24-11.57-.18-5.58.09-11.16.19-16.75.29-6.93.13-13.86.22-20.78.41-14.68.4-29.37.92-44.05,1.48-8.37.32-16.74.4-25.1,1.11-3.83.33-7.89.59-11.79,1.26-3.39.58-8.59,1.01-11.28,4.1-1.68,1.93-1.34,5.87-1.38,8.63-.16,11.15,1.07,29.49-9.32,33.8-4.04,1.67-8.4.94-12.55.81-3.75-.12-8.82-1.19-12.46.25-3.03,1.2-4.28,5.24-4.97,8.98-1.98,10.71-2.43,21.9-2.95,32.92-.17,3.71-.25,7.44-.35,11.16-.15,5.11-1.26,11.9.4,16.62,1.09,3.11-.62,6.32-.77,9.47-.16,3.41.16,6.98.25,10.4.17,6.19-.54,13.67,1.47,19.16.6,1.64-.46,3.38-.58,5-.2,2.66.33,5.81.54,8.47.43,5.36,1.02,10.7,1.99,15.94.69,3.73,1.95,7.77,4.97,8.98,3.63,1.45,8.7.37,12.46.25,4.15-.14,8.51-.86,12.55.81,10.39,4.31,9.16,22.65,9.32,33.8.04,2.76-.3,6.7,1.38,8.63,2.7,3.09,7.89,3.52,11.28,4.1,3.89.67,7.96.93,11.79,1.26,8.36.71,16.73.79,25.1,1.11,14.68.56,29.36,1.08,44.05,1.48,6.02.17,74.45,1.45,74.45,1.08,0-.33,28.86-.45,30.78-.47,2.62-.03,6.36,1.17,8.09-1.96.11-.2.24-.44.43-.45.1,0,.19.04.28.1,1.07.63,2.15,1.98,3.29,2.27,1.07.27,2.43-.11,3.52-.12,2.87-.03,5.74-.07,8.61-.1,3.24-.04,6.47-.06,9.71-.12,3.25-.06,6.5-.12,9.74-.21,14.68-.4,29.37-.92,44.05-1.48,8.37-.32,16.74-.4,25.1-1.11,3.83-.33,7.89-.59,11.79-1.26,3.39-.58,8.59-1.01,11.28-4.1,1.68-1.93,1.34-5.87,1.38-8.63.16-11.15-1.07-29.49,9.32-33.8,4.04-1.67,8.4-.94,12.55-.81,3.75.12,8.82,1.19,12.46-.25,3.03-1.2,4.28-5.24,4.97-8.98.88-4.73,2.08-9.97.92-14.77,2.15.03,1.9-15.62,2.02-18.15.11-2.37.79-24.98.8-31.42,0-.07,0-.15,0-.23Z"/>
          <path class="textpanel-cls-4" d="M418.79,125.91v.46c0,6.16-.68,28.67-.8,31.11l-.06,1.63c-.16,3.36-.02,7.23-.39,10.65-.08.52-.14,1.04-.24,1.57-.33,1.67-.9,2.78-.98,4.55-.09,1.71.28,3.42.09,5.16-.33,2.86-.74,5.74-1.26,8.56-.84,4.49-1.89,5.39-2.6,5.68-.95.36-2.19.56-3.8.56-1.4,0-2.88-.15-4.32-.27-1.15-.1-2.27-.21-3.26-.23-.8-.04-1.61-.08-2.4-.13-1.28-.08-2.57-.17-3.86-.17-2.95,0-5.31.42-7.42,1.32-11.71,4.84-11.72,22.57-11.74,34.33,0,1.32,0,2.57-.02,3.76-.02.46,0,.96,0,1.5,0,1.13.02,3.26-.25,3.82-1.48,1.69-5.4,2.3-7.99,2.71l-1.4.21c-3.12.54-6.4.79-9.58,1.06l-1.99.17c-6.02.52-12.18.69-18.15.88-2.28.06-4.55.15-6.82.23-12.92.48-28.24,1.04-44.03,1.46-5.31.15-10.62.23-15.93.33-4.59.08-9.19.21-13.77.25-2.28.02-3.25-1.11-5.33-1.65-1.81-.48-2.27.9-3.83,1.65-.57.29-1.23.38-1.94.4-1.1.02-2.27-.17-3.21-.15-3.81.06-7.64.13-11.46.17-5.31.08-10.64.17-15.93.17-1.24,0-2.1-.02-2.51-.04-.16-.02-.32-.04-.47-.04s-.32.02-.46.04c-.41.02-1.28.04-2.52.04-11,0-49.37-.71-65.02-1.02-3.26-.06-5.55-.13-6.38-.15-6.35-.17-12.84-1.02-19.13-.94.17-1.88.54-3.7,1.09-5.43-1.5,2.15-2.22,4.97-4.18,5.7-2.21.79-5.64-.19-7.94-.27-4.62-.19-9.23-.35-13.87-.52-2.27-.08-4.54-.17-6.81-.23-5.97-.19-12.15-.35-18.17-.88l-1.99-.17c-3.18-.27-6.46-.52-9.58-1.06l-1.39-.21c-2.6-.42-6.51-1.02-8.07-2.8-.2-.48-.2-2.61-.19-3.74v-1.5c-.02-1.19-.02-2.44-.02-3.76-.02-11.76-.03-29.49-11.72-34.33-2.14-.9-4.49-1.32-7.42-1.32-1.29,0-2.58.08-3.88.17-.8.04-1.59.08-2.38.13-1.02.02-2.13.13-3.26.23-1.45.13-2.93.27-4.32.27-1.61,0-2.85-.21-3.8-.56-.72-.29-1.76-1.19-2.6-5.68-.99-5.3-1.56-10.75-1.99-16.2-.05-.61-.11-1.27-.19-1.92-.19-1.88-.41-3.88-.25-5.68.11-1.34.96-2.59,1.15-3.91.05-.29.06-.58.03-.88-.06-.54-.27-1-.49-1.46-.35-.71-.6-1.48-.8-2.3-1.17-4.45-.77-10.23-1.01-14.81-.14-2.61-.25-5.28-.25-7.94,0-2.42.11-4.8.36-7.18.14-1.32.33-2.59.6-3.88.05-.29.11-.58.09-.9-.02-.25-.09-.48-.16-.71-1.45-4.68-.46-10.96-.32-16.02.11-3.68.19-7.37.36-11.05l.08-1.61c.47-10.17.95-20.72,2.77-30.51.84-4.47,1.88-5.39,2.6-5.66.95-.38,2.19-.54,3.8-.54,1.39,0,2.87.13,4.32.25,1.13.1,2.24.21,3.26.23.79.02,1.58.08,2.38.13,1.29.08,2.58.15,3.88.15,2.93,0,5.28-.4,7.42-1.29,11.69-4.84,11.71-22.57,11.72-34.33,0-1.32,0-2.57.02-3.76v-1.5c-.02-1.13-.02-3.26.25-3.82,1.5-1.69,5.4-2.3,8-2.71l1.39-.23c3.12-.52,6.4-.79,9.58-1.04l1.99-.17c6.02-.52,12.16-.71,18.14-.88,2.28-.08,4.55-.15,6.84-.23,1.69-.06,3.44-.13,5.2-.19,11.77-.44,25.15-.94,38.83-1.29,7.5-.21,15.02-.29,22.53-.44,6.07-.1,12.15-.21,18.22-.31,2.87-.06,6.15-.69,8.98-.19,1.81.35,3.58,1.25,5.42.84,1.97-.44,3.29-.94,5.4-.94,3.61-.04,7.23-.1,10.84-.1,1.24,0,2.11,0,2.52.02.14.04.3.04.46.04s.32,0,.47-.04c.27-.02.72-.02,1.37-.02h1.13c13.28,0,66.54,1.02,71.4,1.15,15.73.42,31.09,1,44.03,1.48,2.28.08,4.57.15,6.85.23,5.96.17,12.12.35,18.12.88l1.99.17c3.18.25,6.46.52,9.58,1.04l1.4.23c2.58.42,6.51,1.02,8.05,2.8.2.48.19,2.61.19,3.74,0,.54-.02,1.04,0,1.5.02,1.19.02,2.44.02,3.76,0,6.06.03,12.24,1.17,18.15.58,3.07,1.43,6.08,2.8,8.71,1.59,3.07,3.25,3.95,3.72,7.73.08.58.27,1.32.71,1.34.2.02.39-.15.58-.29,2.85-2.57,6.7,0,10.18,0,1.29,0,2.58-.06,3.86-.15.79-.04,1.59-.1,2.4-.13.99-.02,2.11-.13,3.26-.23,1.43-.13,2.92-.25,4.32-.25,1.61,0,2.85.17,3.8.54.71.27,1.76,1.19,2.6,5.66,1.34,7.29,1.92,14.74,2.36,22.2.09,1.52.25,3.09.08,4.59,0,.15-.02.25-.03.38-.24,1.55-.93,2.3-.61,3.97.05.27.13.5.24.73.44,1.04,1.18,1.84,1.37,3.11.35,2.61-.27,6.06-.19,8.79.19,6.49.43,12.99.43,19.48Z"/>
          <path class="textpanel-cls-5" d="M244.73,247.49c-1.1.02-2.27-.17-3.21-.15-3.81.06-7.64.13-11.46.17-5.31.08-10.64.17-15.93.17-1.24,0-2.1-.02-2.51-.04-.16-.02-.32-.04-.47-.04s-.32.02-.46.04c-.41.02-1.28.04-2.52.04-11,0-49.37-.71-65.02-1.02L97.95,7.05c11.77-.44,25.15-.94,38.83-1.29,7.5-.21,15.02-.29,22.53-.44,6.07-.1,12.15-.21,18.22-.31,2.87-.06,6.15-.69,8.98-.19,1.81.35,3.58,1.25,5.42.84,1.97-.44,3.29-.94,5.4-.94,3.61-.04,7.23-.1,10.84-.1,1.24,0,2.11,0,2.52.02.14.04.3.04.46.04s.32,0,.47-.04c.27-.02.72-.02,1.37-.02l31.74,242.88Z"/>
          <path class="textpanel-cls-6" d="M409.42,149.84c.27,2.56-1.84,6.66-2.17,9.47-.35,2.92-.35,5.92-.54,8.86-.05.72-.08,1.44-.11,2.2-.14,3.38-.32,7.21-1.63,10.68-.88,2.33-2.28,4.04-3.94,4.8-1.05.51-2.27.72-3.81.72-1.13,0-2.27-.13-3.26-.23-.4-.04-.77-.08-1.12-.11-.88-.08-1.76-.11-2.63-.11-1.32,0-2.62.08-3.85.25-3.48.51-8.39,2.05-12.1,6.51-2.9,3.49-4.71,8.59-5.57,15.63-.7,5.9-1.23,12.63-1.6,20.49-.03.61-.11,2.45-1.24,3.96-1.07,1.44-2.41,1.59-2.84,1.65-5.35.66-10.64.72-15.78.8-1.48.02-2.98.04-4.48.08-6.65.15-13.29.25-19.95.34-4.17.04-8.39-.97-12,2.22-1.24,1.1-2.46,2.26-3.64,3.49-.22-.61-.32-1.12-.4-1.54.13-.3.27-.55.4-.8.38-.7.69-1.59.49-2.43-.48-2.07-8.33-.8-9.86-.8-5.12,0-10.25-.02-15.37-.04-8.51-.02-17.33-.08-26.22-.15-14.94-.08-30.1-.19-44.46-.19h-2.76c-7.61,0-15.21.04-22.82.06-3.88.02-7.76.19-11.63.06-2.55-.06-5.31-.25-6.56,3.55-.08.21-.16.47-.32.55-.16.08-.34,0-.48-.06-2.28-1.23-4.85-3.26-7.28-3.89-2.09-.53-4.61-.02-6.75,0-4.95.02-9.89.04-14.86.06-5.12.02-10.23.04-15.35.04-8.35,0-16.68-.04-25.02-.13-6.64-.08-13.29-.19-19.93-.34-1.52-.04-3-.06-4.5-.08-5.12-.08-10.42-.15-15.77-.8-.45-.06-1.77-.21-2.86-1.65-1.12-1.5-1.21-3.34-1.23-3.96-.37-7.89-.89-14.59-1.61-20.49-.38-3.28-1.04-6.53-2.14-9.52-.91-2.41-2.68-4.38-3.02-7.02-.02-.15-.05-.32-.13-.44-.08-.13-.21-.19-.32-.23-1.02-.44-1.87-.47-2.79-1.14-1.05-.76-2.14-1.46-3.27-1.99-1.93-.93-3.96-1.5-6-1.8-1.21-.17-2.51-.25-3.83-.25-.88,0-1.77.02-2.65.11-.34.02-.7.06-1.1.11-1.01.11-2.12.23-3.27.23-1.55,0-2.76-.21-3.8-.72-1.66-.76-3.06-2.47-3.94-4.8-1.32-3.47-1.48-7.3-1.63-10.68-.03-.76-.06-1.5-.11-2.2-.27-4.06-.48-8.29-.64-12.6-.24-7.06-.34-14.68-.29-23.18v-3c-.05-8.63.05-16.24.29-23.28.16-4.31.37-8.57.64-12.6.05-.72.08-1.44.11-2.2.14-3.38.3-7.21,1.63-10.68.88-2.33,2.28-4.04,3.94-4.82,1.02-.49,2.28-.72,3.8-.72,1.15,0,2.27.13,3.27.23.4.04.77.08,1.12.13.86.06,1.76.11,2.63.11,1.32,0,2.62-.08,3.83-.28,2.9-.4,14.47-3.93,13.2-9.56-.72-3.13,1.53-2.26,2.68-3.98,1.21-1.8,1.52-6.3,1.79-8.59.72-5.9,1.24-12.6,1.6-20.49.03-.61.13-2.47,1.24-3.95,1.09-1.44,2.41-1.61,2.86-1.65,5.35-.66,10.64-.74,15.77-.8,1.5-.02,2.98-.04,4.5-.08,6.64-.17,13.29-.28,19.93-.34,2.76-.04,5.55.13,8.3-.11,1.84-.15,4.45.02,5.97-1.52.7-.72,1.2-1.8,2.01-2.28-.33.82-.65,1.67-.99,2.5-.1.25-.21.57-.14.85.1.47.56.57.93.59,1.61.11,3.21.19,4.82.27,6.35.38,13.05-.42,19.49-.4,8.52.04,17.33.11,26.24.15,14.94.11,30.1.19,44.44.19,1.66,0,2.6-.74,3.83-2.22.7-.85,1.74-1.61,2.55-.95-.16,1.69,1.28,2.96,2.59,3.09,13.64,1.23,27.85.97,41.41-1.18.3-.04.67-.15.78-.55.06-.23,0-.53-.06-.76-.54-2.01-1.1-4.02-1.64-6.01,1.17,2.47,2.33,4.97,3.48,7.44.13.27.27.57.49.7.21.13.45.08.67.06,6.3-.63,12.99.08,19.36.04,5.11-.02,10.2-.02,15.29-.02,8.36,0,16.72.02,25.09.13,6.65.06,13.29.17,19.95.34,1.5.04,3,.06,4.48.08,5.14.06,10.44.15,15.78.8.43.04,1.77.21,2.84,1.65,1.13,1.48,1.21,3.34,1.24,3.95.18,3.85.03,5.67,1.82,8.33.91,1.37-.88,3.89-1.01,5.31-.18,1.97.54,4.86.78,6.85.86,7.02,2.67,12.14,5.55,15.63,3.72,4.46,8.63,5.99,12.11,6.49,1.23.19,2.52.28,3.85.28.88,0,1.76-.04,2.63-.11.35-.04.72-.08,1.12-.13.99-.11,2.12-.23,3.26-.23,1.55,0,2.76.23,3.81.72,1.66.78,3.06,2.5,3.94,4.82,1.31,3.45,1.48,7.3,1.63,10.68.03.74.06,1.48.11,2.2.26,4.02.48,8.27.62,12.6.03.97.06,1.95.1,2.94.18,6.2.24,12.88.19,20.24v3c.03,3.76-.24,7.68-.02,11.44.14,2.47,1.6,3.95,1.82,6.11Z"/>
          <path class="textpanel-cls-7" d="M404.4,135.56c0,6.16-.08,12.34-.32,18.48-.14,4.16-.35,8.29-.6,12.43-.24,3.59-.13,7.91-1.39,11.21-.44,1.11-1.1,2.13-2,2.55-1.83.86-4.85.27-6.81.1-2.36-.19-4.73-.17-7.09.17-5.11.77-10.2,3.03-14.06,7.68-3.96,4.78-5.81,11.44-6.63,18.29-.84,6.85-1.32,14.07-1.65,20.97-.02.33-.03.73-.22.98-.17.23-.46.27-.71.29-6.73.84-13.27.73-20.01.9-6.65.15-13.28.25-19.9.33-11.09.13-22.19.15-33.28.1-2.35,0-4.71-.02-7.08-.02-23.27-.08-48.79-.33-72.08-.33-15.73,0-32.46.1-48.85.23-7.88.04-15.66.08-23.23.1-13.44.06-26.88.06-40.34-.08-6.63-.08-13.28-.19-19.92-.33-6.74-.17-13.28-.06-20.01-.9-.25-.02-.52-.06-.69-.29-.2-.25-.24-.65-.25-.98-.3-6.89-.79-14.12-1.62-20.97-.84-6.85-2.68-13.51-6.65-18.29-3.86-4.66-8.93-6.91-14.06-7.68-2.35-.33-4.71-.36-7.08-.17-1.97.17-5,.75-6.81-.1-.9-.42-1.59-1.44-2-2.55-1.26-3.3-1.15-7.62-1.39-11.21-.27-4.13-.47-8.27-.63-12.43-.27-7.66-.33-15.35-.28-23.03h.02c-.02-.5,0-.98,0-1.48s-.02-1,0-1.48h-.02c-.05-7.68.02-15.37.28-23.03.16-4.16.36-8.29.63-12.45.03-.52.06-1.04.08-1.61.16-3.22.22-6.79,1.31-9.59.41-1.13,1.1-2.13,2-2.55,1.81-.86,4.84-.27,6.81-.1,2.36.19,4.73.15,7.08-.19,5.12-.75,10.2-3.03,14.06-7.68,3.97-4.76,5.81-11.42,6.65-18.29.84-6.83,1.32-14.05,1.62-20.92.02-.38.05-.75.25-1,.17-.23.44-.27.69-.31,6.73-.81,13.27-.71,20.01-.88,6.63-.15,13.28-.27,19.92-.33,9.22-.1,18.42-.13,27.62-.13,4.24,0,8.49.02,12.72.04,23.29.08,48.79.33,72.08.31,20.63.02,43.02-.17,64.04-.27,2.69-.02,5.39-.04,8.04-.04,13.46-.06,26.9-.06,40.36.08,6.62.06,13.25.19,19.9.33,6.74.17,13.28.06,20.01.88.25.04.54.08.71.31.19.25.2.63.22,1,.33,6.87.82,14.1,1.65,20.92.82,6.87,2.68,13.53,6.63,18.29,3.86,4.66,8.95,6.93,14.06,7.68,2.36.33,4.73.38,7.09.19,1.95-.17,4.98-.75,6.81.1.9.42,1.56,1.42,2,2.55,1.26,3.3,1.15,7.6,1.39,11.19.05.77.09,1.5.13,2.28.2,3.38.36,6.79.47,10.17.28,7.66.35,15.35.3,23.03v2.97c.02,1.52.02,3.03.02,4.55Z"/>
          <path class="textpanel-cls-3" d="M416.86,84.85c-.62-3.64-1.28-7.21-1.68-11.04-.43-4.02-.18-7.51-1.07-11.67-1.09-5.01-3.57-3.3-6.51-3.49-3.64-.25-7.17.25-10.82.25-2.55.02-5.01-1.02-7.56-1.25-2.19-.19-3.72.8-5.79,1.42-.61-1.48-1.12-3.55-1.88-4.95-.75-1.37-1.98-2.14-2.74-3.51-1.44-2.52-1.87-6.7-2.27-9.71-.93-6.98-2.55-13.54-1.68-20.68.19-1.57,1.12-4.7.56-6.15-.73-1.97-4.37-2.64-5.86-2.94-2.98-.59-5.97-.59-8.95-1.08-4.76-.76-9.53-.02-14.28-.32-8.86-.55-17.73-.85-26.57-1.86-5.51-.66-11.06.44-16.56-.13-6.34-.68-12.7-.51-19.05-.7-6.81-.17-13.61.02-20.43.02-11.08,0-22.15-1.16-33.23-1.29-7.42-.06-14.73-.68-22.13-.04-4.95.42-8.94.34-13.85.53-2.23.08-4.44.74-6.62.55-1.85-.15-3.7-.47-5.59-.7-3.43-.44-6.88.11-10.31.15-5.03.04-10.09.21-15.14.27-2.79.02-5.47.91-8.25,1.08-8.22.51-16.49-.02-24.77,0-6.05,0-12.29-.11-18.3.91-5.75.97-11.59-.55-17.39.08-7.09.8-14.33.89-21.46.89-3.96,0-8.59-.55-12.32,1.35-1.8.91-5.52.91-6.42,3.36-.46,1.29-.13,4.1-.1,5.54.19,7.74.85,16.94-2.04,24.02-3.26,7.99-6.14,13.39-13.18,13.77-3.08.17-6.1.55-9.18.55-3.46-.02-7.48-.72-10.85.25-1.42.42-2.15.3-3.05,1.63-2.95,4.4-2.84,14.25-3.27,19.84-.75,9.81-1.29,19.63-1.53,29.46-.1,3.68-.43,7.25-.05,10.89.19,1.71.57,2.9.13,4.65-.21.8-.67,1.61-1.05,2.52.14-1.31.34-2.6.59-3.89.05-.3.11-.59.1-.89-.02-.25-.1-.49-.16-.72-1.44-4.67-.45-10.96-.3-16.01.11-3.68.18-7.38.35-11.06l.08-1.61c.48-10.17.96-20.7,2.78-30.5.83-4.48,1.88-5.39,2.6-5.67.94-.38,2.19-.55,3.8-.55,1.39,0,2.87.13,4.31.25,1.15.11,2.25.21,3.27.23.78.02,1.58.08,2.38.13,1.29.08,2.59.15,3.88.15,2.94,0,5.28-.4,7.42-1.29,11.7-4.84,11.71-22.59,11.73-34.35,0-1.31,0-2.56.02-3.74v-1.5c-.02-1.14-.02-3.26.24-3.83,1.5-1.69,5.41-2.31,8.01-2.71l1.39-.23c3.11-.53,6.4-.8,9.58-1.06l1.99-.17c6.02-.51,12.16-.7,18.13-.87,2.28-.08,4.56-.15,6.85-.23,12.94-.49,28.29-1.06,44.03-1.48,7.5-.21,15.02-.3,22.53-.44,6.06-.11,12.14-.21,18.21-.32,2.87-.04,6.14-.68,8.98-.17,1.8.34,3.57,1.25,5.41.82,1.98-.44,3.3-.93,5.41-.93,3.61-.04,7.23-.11,10.85-.11,1.24,0,2.11,0,2.51.02.14.04.3.04.46.04s.32,0,.48-.04c.4-.02,1.26-.02,2.51-.02,13.28,0,66.55,1.02,71.4,1.14,15.72.42,31.09.99,44.03,1.48,2.28.08,4.56.15,6.85.23,5.95.17,12.11.36,18.13.87l1.98.17c3.18.25,6.46.53,9.58,1.06l1.4.23c2.59.4,6.51,1.02,8.06,2.79.21.49.19,2.6.19,3.74,0,.53-.02,1.04,0,1.5.02,1.18.02,2.43.02,3.74,0,6.07.03,12.25,1.16,18.17.57,3.07,1.44,6.07,2.79,8.69,1.6,3.07,3.26,3.95,3.73,7.74.06.57.26,1.31.7,1.33.21.02.4-.15.57-.3,2.86-2.56,6.7,0,10.18,0,1.29,0,2.59-.06,3.86-.15.8-.04,1.6-.11,2.39-.13,1.01-.02,2.12-.13,3.27-.23,1.44-.13,2.9-.25,4.31-.25,1.61,0,2.86.17,3.8.55.72.27,1.77,1.18,2.6,5.67,1.34,7.28,1.93,14.74,2.36,22.19.1,1.52.26,3.09.08,4.61-.21-1.8-.54-3.6-.73-4.61Z"/>
          <path class="textpanel-cls-1" d="M404.19,91.45c-.14.3-.29.59-.43.89.03-4.29-2.79-7.83-5.86-9.2-3.08-1.35-6.4-1.12-9.62-1.35-6-.44-12.03-2.62-16.96-7.17-4.93-4.57-8.67-11.65-9.46-19.56-.72-7.11-.8-14.31-1.7-21.42-.18-1.4-7.58-2.03-8.56-2.09-2.88-.15-5.7-.36-8.59-.49-6.63-.29-13.26.21-19.9.28-14.7.13-29.4.27-44.09.4-45.23.42-90.45.85-135.68,1.27-27.51.25-55.06.51-82.49,3.34.48,10.68-1.79,20.34-4.68,30.24-3.56,12.2-7.66,11.95-17.04,13.09-4.34.53-8.44,1.18-12.77.89-1.44-.08-3.16-.32-4.45.63-1.42,1.04-3.02,4.04-3.56,6.37.16-3.21.22-6.79,1.31-9.6.42-1.12,1.1-2.11,1.99-2.54,1.82-.85,4.85-.27,6.81-.11,2.36.19,4.72.15,7.07-.19,5.12-.74,10.2-3.02,14.06-7.68,3.97-4.76,5.82-11.42,6.65-18.29.83-6.83,1.32-14.06,1.63-20.94.02-.36.05-.74.24-.99.18-.23.45-.27.7-.32,6.72-.8,13.26-.7,20.01-.87,6.64-.15,13.28-.27,19.92-.34,13.45-.15,26.89-.15,40.34-.08,23.28.08,48.79.34,72.07.32,23.3.02,48.8-.23,72.08-.32,13.45-.06,26.89-.06,40.34.08,6.62.06,13.26.19,19.9.34,6.75.17,13.29.06,20.01.87.26.04.54.08.72.32.19.25.21.63.22.99.32,6.87.81,14.11,1.64,20.94.83,6.87,2.68,13.54,6.64,18.29,3.86,4.65,8.95,6.94,14.06,7.68,2.36.34,4.72.38,7.09.19,1.96-.17,4.98-.74,6.81.11.89.42,1.56,1.42,1.99,2.54,1.26,3.3,1.15,7.61,1.39,11.21.05.76.1,1.5.13,2.26Z"/>
        </g>
      </g>
    </g>
  </g>
</svg>