<?xml version="1.0" encoding="UTF-8"?>
<svg id="Layer_2" data-name="Layer 2" xmlns="http://www.w3.org/2000/svg" viewBox="0 0 127.74 668.54">
  <defs>
    <style>
      .cls-1 {
        fill: #000;
        stroke-width: 0px;
      }
    </style>
  </defs>
  <g id="objet_shadows">
    <path class="cls-1" d="M.06,640.52c-.14-5.91,1.06-11.13,3.62-16.19,1.52-2.99,1.87-6.56,3.19-9.68,2.25-5.33,3.04-11.16,6.58-16.11,3.53-4.92,6.1-10.53,9.11-15.83.79-1.4,1.69-2.75,2.42-4.18,2.23-4.44,4.43-8.89,6.59-13.36.88-1.82,1.6-3.72,2.42-5.57,1.24-2.81,2.75-5.54,3.69-8.45,1.56-4.8,2.75-9.71,4.1-14.57,1.69-6.09,3.07-12.28,5.15-18.23,1.55-4.43,2.12-8.91,2.78-13.49.6-4.19,2.06-8.26,3.17-12.38.94-3.5,1.85-7.02,2.92-10.49,1.18-3.8,2.62-7.53,3.77-11.34.62-2.04,1.06-4.17,1.26-6.28.66-6.87.85-13.81,1.88-20.62.51-3.37,2.47-6.53,3.76-9.78.23-.58.46-1.18.58-1.79.97-4.94,2-9.86,2.83-14.82.69-4.16,1.24-8.36,1.66-12.56.51-5.12.5-10.32,1.3-15.39.79-5,2.31-9.88,3.52-14.81,1.2-4.89,2.58-9.73,3.53-14.67.57-2.92.66-5.97.63-8.95-.1-10.6-.24-21.2-.56-31.79-.17-5.65-.72-11.28-1.17-16.92-.28-3.54-.36-7.13-1.11-10.58-2.01-9.19-1.3-18.5-1.7-27.77-.18-4.24-1.33-8.44-2.03-12.65-.05-.28-.09-.55-.11-.83-.39-5.82-.43-11.69-1.25-17.45-.73-5.16-2.31-10.21-3.54-15.3-.45-1.85-.88-3.7-1.46-5.51-1.18-3.7-2.62-7.33-3.65-11.07-.87-3.15-1.25-6.43-1.96-9.63-1.03-4.66-2.18-9.3-3.24-13.95-.63-2.74-1.09-5.53-1.83-8.24-1.57-5.73-3.34-11.4-4.91-17.13-1.1-4.04-1.84-8.17-3.02-12.18-1-3.41-2.42-6.7-3.58-10.07-1.57-4.55-3.1-9.1-4.56-13.68-.39-1.23-.35-2.59-.67-3.84-.79-3.02-1.58-6.06-2.55-9.02-1.15-3.5-2.39-6.98-3.78-10.39-1.84-4.5-3.87-8.93-5.79-13.4-2.05-4.78-3.99-9.6-6.09-14.36-2.29-5.2-4.85-10.29-6.98-15.55-1.33-3.26-2.06-6.76-3.1-10.14-1.59-5.16-2.46-10.41-2.97-15.8-.48-5.05-1.94-10-2.94-15.01-.45-2.26,2.08-7.68,4.21-8.56.85-.35,2.14-.09,3.07.29,2.85,1.13,4.89,3.27,6.36,5.89,3.09,5.5,6.02,11.09,9.16,16.57,2.12,3.7,4.53,7.22,6.69,10.89,1.61,2.73,3.01,5.59,4.56,8.36,1.97,3.52,3.88,7.08,6.03,10.49,3.19,5.06,5.81,10.28,7.68,16.06,1.96,6.08,5.32,11.7,8,17.55,2.01,4.39,3.85,8.86,5.9,13.24,2.22,4.74,4.68,9.37,6.84,14.14,1.28,2.81,2.08,5.84,3.3,8.69,1.85,4.3,3.95,8.5,5.8,12.81,1.19,2.77,2.17,5.63,3.15,8.48,2.1,6.13,4.03,12.33,6.23,18.43,2.13,5.91,4.56,11.71,6.73,17.6,1.09,2.93,1.92,5.96,2.85,8.95,1.48,4.79,2.97,9.58,4.39,14.38,1.03,3.52,1.86,7.11,2.93,10.62,1.56,5.13,2.18,10.52,4.85,15.38,1.25,2.27,1.17,5.23,1.92,7.82,1.7,5.84,2.2,11.79,2.38,17.86.19,6.48.85,12.96,1.58,19.41.44,3.83,1.41,7.61,2.13,11.41.04.18.04.37.05.56.57,6.54,1.01,13.09,1.76,19.6.33,2.94,1.25,5.81,1.91,8.71.06.27.21.53.23.8.4,4.85,1.18,9.72,1.05,14.55-.11,4.07-1.37,8.09-2,12.15-.51,3.26-1.05,6.54-1.2,9.82-.33,7.02-.22,14.06-.69,21.06-.25,3.67-1.42,7.27-2.01,10.92-.27,1.65-.04,3.38-.17,5.06-.55,7.29-.91,14.6-1.83,21.84-.46,3.65-1.97,7.18-3,10.76-.08.27-.14.55-.16.83-.4,5.38-1.1,10.76-1.12,16.14-.02,6.63-1.09,12.84-3.84,18.97-1.71,3.8-2.11,8.2-2.99,12.36-.97,4.62-1.83,9.26-2.71,13.9-.82,4.34-1.29,8.77-2.45,13.01-1.73,6.28-1.73,12.89-4.78,18.96-3.56,7.09-6.23,14.63-9.02,22.08-1.02,2.72-1.18,5.74-1.89,8.59-.99,3.94-2.18,7.84-3.2,11.78-.35,1.35-.33,2.79-.67,4.13-.77,3.02-1.55,6.06-2.55,9.01-1.1,3.24-2.36,6.44-3.72,9.58-1.92,4.45-4.01,8.84-6,13.26-2.33,5.17-4.58,10.38-6.95,15.54-1.8,3.92-3.54,7.9-5.67,11.64-4.32,7.57-9.52,14.71-13.15,22.59-2.78,6.03-6.44,11.42-9.98,16.86-2.07,3.18-5.59,5.8-9.03,7.57-1.92.98-5.13.1-7.53-.66-4.83-1.54-7.59-5.66-10.55-9.46-1.26-1.61-2.61-3.19-4.11-4.56-3.92-3.6-5.03-8.12-4.69-12.9Z"/>
  </g>
</svg>