<?xml version="1.0" encoding="UTF-8"?>
<svg id="Layer_2" data-name="Layer 2" xmlns="http://www.w3.org/2000/svg" viewBox="0 0 607.07 670.74">
  <g id="objet_shadows">
    <g>
      <path class="cls-2" d="M256.41,561.56c-.1-4.36.78-8.22,2.68-11.96,1.12-2.21,1.38-4.84,2.36-7.15,1.66-3.94,2.24-8.24,4.86-11.9,2.61-3.64,4.51-7.78,6.73-11.7.59-1.03,1.25-2.03,1.78-3.09,1.65-3.28,3.27-6.57,4.87-9.87.65-1.35,1.18-2.75,1.79-4.12.92-2.08,2.03-4.09,2.73-6.24,1.15-3.54,2.03-7.17,3.03-10.76,1.24-4.5,2.27-9.07,3.8-13.46,1.14-3.27,1.57-6.58,2.05-9.96.45-3.1,1.52-6.1,2.34-9.14.7-2.59,1.36-5.19,2.16-7.75.87-2.81,1.93-5.56,2.78-8.37.46-1.5.78-3.08.93-4.64.49-5.07.63-10.2,1.39-15.23.38-2.49,1.83-4.82,2.78-7.23.17-.43.34-.87.43-1.32.71-3.65,1.48-7.28,2.09-10.95.51-3.07.92-6.17,1.23-9.27.38-3.78.37-7.62.96-11.36.58-3.69,1.71-7.3,2.6-10.94.88-3.61,1.9-7.19,2.61-10.83.42-2.15.48-4.41.46-6.61-.07-7.83-.18-15.66-.42-23.48-.13-4.17-.53-8.33-.86-12.5-.21-2.61-.27-5.27-.82-7.81-1.48-6.79-.96-13.66-1.26-20.51-.13-3.13-.98-6.23-1.5-9.34-.03-.2-.07-.41-.08-.62-.28-4.3-.32-8.64-.92-12.89-.54-3.81-1.71-7.54-2.61-11.3-.33-1.36-.65-2.73-1.08-4.07-.87-2.73-1.93-5.41-2.7-8.18-.64-2.33-.93-4.75-1.45-7.11-.76-3.44-1.61-6.87-2.4-10.3-.46-2.02-.8-4.08-1.35-6.08-1.16-4.23-2.47-8.42-3.62-12.65-.81-2.98-1.36-6.04-2.23-9-.74-2.52-1.79-4.95-2.65-7.43-1.16-3.36-2.29-6.72-3.36-10.11-.29-.91-.26-1.91-.5-2.84-.58-2.23-1.17-4.47-1.89-6.66-.85-2.59-1.77-5.16-2.8-7.68-1.36-3.33-2.86-6.59-4.27-9.9-1.51-3.53-2.95-7.09-4.49-10.61-1.69-3.84-3.58-7.6-5.16-11.48-.98-2.41-1.52-4.99-2.29-7.49-1.18-3.81-1.82-7.69-2.19-11.67-.35-3.73-1.43-7.39-2.17-11.08-.33-1.67,1.53-5.67,3.11-6.32.63-.26,1.58-.06,2.27.21,2.1.83,3.61,2.41,4.7,4.35,2.28,4.06,4.45,8.19,6.76,12.24,1.56,2.73,3.34,5.34,4.94,8.05,1.19,2.02,2.22,4.13,3.37,6.17,1.45,2.6,2.86,5.23,4.45,7.75,2.36,3.74,4.29,7.59,5.67,11.86,1.45,4.49,3.93,8.64,5.91,12.96,1.49,3.24,2.85,6.55,4.36,9.78,1.64,3.5,3.45,6.92,5.05,10.44.95,2.08,1.54,4.32,2.44,6.42,1.37,3.18,2.92,6.28,4.28,9.46.88,2.04,1.6,4.16,2.32,6.26,1.55,4.53,2.98,9.11,4.6,13.61,1.57,4.36,3.36,8.65,4.97,13,.8,2.17,1.42,4.4,2.1,6.61,1.09,3.54,2.2,7.07,3.24,10.62.76,2.6,1.38,5.25,2.17,7.84,1.16,3.79,1.61,7.77,3.59,11.36.92,1.67.87,3.86,1.42,5.77,1.25,4.32,1.63,8.71,1.76,13.19.14,4.79.63,9.57,1.17,14.33.32,2.83,1.04,5.62,1.57,8.42.03.14.03.28.04.41.42,4.83.75,9.66,1.3,14.48.25,2.17.93,4.29,1.41,6.43.05.2.16.39.17.59.29,3.58.87,7.18.77,10.75-.08,3-1.01,5.98-1.48,8.98-.37,2.41-.77,4.83-.89,7.26-.24,5.18-.16,10.38-.51,15.56-.18,2.71-1.05,5.37-1.48,8.07-.2,1.22-.03,2.49-.13,3.73-.41,5.38-.67,10.78-1.35,16.13-.34,2.7-1.45,5.3-2.21,7.95-.06.2-.1.41-.12.61-.3,3.97-.81,7.95-.82,11.92-.01,4.9-.8,9.48-2.84,14.01-1.26,2.81-1.56,6.06-2.21,9.13-.72,3.41-1.36,6.84-2,10.27-.6,3.2-.95,6.47-1.81,9.61-1.28,4.64-1.28,9.52-3.53,14.01-2.63,5.23-4.6,10.81-6.66,16.31-.75,2.01-.87,4.24-1.4,6.34-.73,2.91-1.61,5.79-2.36,8.7-.26.99-.24,2.06-.5,3.05-.57,2.23-1.14,4.48-1.88,6.66-.81,2.4-1.75,4.76-2.75,7.08-1.42,3.29-2.96,6.53-4.43,9.79-1.72,3.82-3.38,7.67-5.13,11.48-1.33,2.9-2.61,5.83-4.19,8.6-3.19,5.59-7.03,10.87-9.71,16.68-2.05,4.46-4.76,8.44-7.37,12.46-1.53,2.35-4.13,4.29-6.67,5.59-1.42.73-3.79.07-5.56-.49-3.57-1.13-5.61-4.18-7.79-6.99-.93-1.19-1.93-2.35-3.04-3.37-2.9-2.66-3.72-6-3.46-9.52Z"/>
      <path class="cls-1" d="M0,0v670.74h607.07V0H0ZM350.7,331.99c-.08,3-1.01,5.98-1.48,8.98-.37,2.41-.77,4.83-.89,7.26-.24,5.18-.16,10.38-.51,15.56-.18,2.71-1.05,5.37-1.48,8.07-.2,1.22-.03,2.49-.13,3.73-.41,5.38-.67,10.78-1.35,16.13-.34,2.7-1.45,5.3-2.21,7.95-.06.2-.1.41-.12.61-.3,3.97-.81,7.95-.82,11.92-.01,4.9-.8,9.48-2.84,14.01-1.26,2.81-1.56,6.06-2.21,9.13-.72,3.41-1.36,6.84-2,10.27-.6,3.2-.95,6.48-1.81,9.61-1.27,4.64-1.28,9.52-3.53,14.01-2.63,5.23-4.6,10.81-6.66,16.31-.75,2.01-.87,4.24-1.4,6.34-.73,2.91-1.61,5.79-2.36,8.7-.26.99-.24,2.06-.5,3.05-.57,2.23-1.14,4.48-1.88,6.66-.81,2.4-1.75,4.76-2.75,7.08-1.42,3.29-2.96,6.53-4.43,9.79-1.72,3.82-3.38,7.67-5.13,11.48-1.33,2.9-2.61,5.83-4.19,8.6-3.19,5.59-7.03,10.87-9.71,16.68-2.05,4.46-4.76,8.44-7.37,12.46-1.53,2.35-4.13,4.29-6.67,5.59-1.42.73-3.79.07-5.56-.49-3.57-1.13-5.61-4.18-7.79-6.99-.93-1.19-1.93-2.35-3.04-3.37-2.9-2.66-3.72-6-3.46-9.52-.1-4.36.78-8.22,2.68-11.96,1.12-2.21,1.38-4.84,2.36-7.15,1.66-3.94,2.24-8.24,4.86-11.9,2.61-3.64,4.51-7.78,6.73-11.7.59-1.03,1.25-2.03,1.78-3.09,1.65-3.28,3.27-6.56,4.87-9.87.65-1.35,1.18-2.75,1.79-4.12.92-2.08,2.03-4.09,2.73-6.24,1.15-3.54,2.03-7.17,3.03-10.76,1.24-4.5,2.27-9.07,3.8-13.46,1.14-3.27,1.57-6.58,2.05-9.96.45-3.1,1.52-6.1,2.34-9.14.7-2.59,1.36-5.19,2.16-7.75.87-2.81,1.93-5.56,2.78-8.37.46-1.5.78-3.08.93-4.64.49-5.08.63-10.2,1.39-15.23.38-2.49,1.83-4.82,2.78-7.23.17-.43.34-.87.43-1.32.71-3.65,1.48-7.28,2.09-10.95.51-3.08.92-6.17,1.23-9.27.38-3.78.37-7.62.96-11.36.58-3.69,1.71-7.3,2.6-10.94.88-3.61,1.9-7.19,2.61-10.83.42-2.15.48-4.41.46-6.61-.07-7.83-.18-15.66-.42-23.48-.13-4.17-.53-8.33-.86-12.5-.21-2.61-.27-5.27-.82-7.81-1.48-6.79-.96-13.66-1.26-20.51-.13-3.13-.98-6.23-1.5-9.34-.03-.2-.07-.41-.08-.62-.28-4.3-.32-8.64-.92-12.89-.54-3.81-1.71-7.54-2.61-11.3-.33-1.36-.65-2.73-1.08-4.07-.87-2.73-1.93-5.41-2.7-8.17-.64-2.33-.93-4.75-1.45-7.11-.76-3.44-1.61-6.87-2.4-10.3-.46-2.02-.8-4.08-1.35-6.08-1.16-4.23-2.47-8.42-3.62-12.65-.81-2.98-1.36-6.04-2.23-9-.74-2.52-1.79-4.95-2.65-7.44-1.16-3.36-2.29-6.72-3.36-10.11-.29-.91-.26-1.91-.5-2.84-.58-2.23-1.17-4.47-1.89-6.67-.85-2.59-1.77-5.16-2.8-7.68-1.36-3.33-2.86-6.59-4.27-9.9-1.51-3.53-2.95-7.09-4.49-10.61-1.69-3.84-3.58-7.6-5.16-11.48-.98-2.41-1.52-4.99-2.29-7.49-1.18-3.81-1.82-7.69-2.2-11.67-.35-3.73-1.43-7.39-2.17-11.08-.33-1.67,1.53-5.67,3.11-6.32.63-.26,1.58-.06,2.27.21,2.1.83,3.61,2.41,4.7,4.35,2.28,4.06,4.45,8.19,6.76,12.24,1.56,2.73,3.34,5.34,4.94,8.05,1.19,2.02,2.22,4.13,3.37,6.17,1.45,2.6,2.86,5.23,4.45,7.75,2.36,3.74,4.29,7.59,5.67,11.86,1.45,4.49,3.93,8.64,5.91,12.96,1.49,3.24,2.85,6.55,4.36,9.78,1.64,3.5,3.45,6.92,5.05,10.44.95,2.08,1.54,4.32,2.44,6.42,1.37,3.18,2.92,6.28,4.28,9.46.88,2.04,1.6,4.16,2.32,6.26,1.55,4.53,2.98,9.11,4.6,13.61,1.57,4.36,3.36,8.65,4.97,13,.8,2.17,1.42,4.4,2.1,6.61,1.09,3.54,2.2,7.07,3.24,10.62.76,2.6,1.38,5.25,2.17,7.84,1.16,3.79,1.61,7.77,3.59,11.36.92,1.68.87,3.86,1.42,5.77,1.25,4.32,1.63,8.71,1.76,13.19.14,4.79.63,9.57,1.17,14.33.32,2.83,1.04,5.62,1.57,8.42.03.14.03.28.04.41.42,4.83.75,9.66,1.3,14.48.25,2.17.93,4.29,1.41,6.43.05.2.16.39.17.59.29,3.58.87,7.18.77,10.75Z"/>
    </g>
  </g>
</svg>